<?xml version="1.0" encoding="utf-8"?>
<!-- Generator: $$$/GeneralStr/196=Adobe Illustrator 27.6.0, SVG Export Plug-In . SVG Version: 6.00 Build 0)  -->
<svg version="1.1" id="圖層_1" xmlns="http://www.w3.org/2000/svg" xmlns:xlink="http://www.w3.org/1999/xlink" x="0px" y="0px"
	 viewBox="0 0 17 17" style="enable-background:new 0 0 17 17;" xml:space="preserve">
<style type="text/css">
	.st0{fill-rule:evenodd;clip-rule:evenodd;fill:#FFFFFF;}
</style>
<path id="形狀_1" class="st0" d="M15.6,13.5c-0.2-0.7-0.7-1.4-1.2-1.9c-0.8-0.8-1.8-1.4-2.9-1.7c-0.2-0.1-0.4-0.1-0.6-0.2
	c0.2-0.2,0.4-0.3,0.6-0.5c1.6-1.4,2.1-3.7,1.1-5.5c-1.2-2.2-4.1-3.1-6.3-1.8C6.1,2,5.9,2.1,5.7,2.2c-2,1.4-2.4,4.2-1,6.2
	C5,8.9,5.5,9.3,5.9,9.6C6,9.6,6,9.6,6.1,9.7l0,0c-0.1,0-0.1,0-0.2,0c-1.1,0.3-2.2,0.8-3,1.6c-0.6,0.5-1.1,1.2-1.4,2
	c-0.3,0.9,0.1,1.8,1,2.1c0,0,0,0,0,0c0.2,0.1,0.5,0.1,0.7,0.1c3.6,0,7.1,0,10.7,0c0.1,0,0.1,0,0.2,0c0.8,0,1.5-0.6,1.6-1.4
	C15.7,14,15.6,13.7,15.6,13.5z"/>
</svg>
