<?xml version="1.0" encoding="utf-8"?>
<!-- Generator: $$$/GeneralStr/196=Adobe Illustrator 27.6.0, SVG Export Plug-In . SVG Version: 6.00 Build 0)  -->
<svg version="1.1" id="Layer_1" xmlns="http://www.w3.org/2000/svg" xmlns:xlink="http://www.w3.org/1999/xlink" x="0px" y="0px"
	 viewBox="0 0 24 24" style="enable-background:new 0 0 24 24;" xml:space="preserve">
<path d="M17.9,10.9H6.1c-1.3,0-2.3,1-2.3,2.3v7.2c0,1.3,1,2.3,2.3,2.3h11.8c1.3,0,2.3-1,2.3-2.3v-7.2C20.2,11.9,19.2,10.9,17.9,10.9
	z M13.1,16.8v2.3c0,0.6-0.5,1.1-1.1,1.1c-0.6,0-1.1-0.5-1.1-1.1v-2.3c-0.5-0.3-0.7-0.9-0.7-1.5c0-1,0.8-1.9,1.9-1.9
	c1,0,1.9,0.8,1.9,1.9C13.9,15.9,13.6,16.5,13.1,16.8z M8.8,7.1c0-1.8,1.4-3.2,3.2-3.2c1.8,0,3.2,1.4,3.2,3.2v2.1h2.6V7.1
	c0-3.2-2.6-5.8-5.8-5.8c-3.2,0-5.8,2.6-5.8,5.8v2.1h2.6V7.1z"/>
</svg>
