<?xml version="1.0" encoding="utf-8"?>
<!-- Generator: $$$/GeneralStr/196=Adobe Illustrator 27.6.0, SVG Export Plug-In . SVG Version: 6.00 Build 0)  -->
<svg version="1.1" id="Capa_1" xmlns="http://www.w3.org/2000/svg" xmlns:xlink="http://www.w3.org/1999/xlink" x="0px" y="0px"
	 viewBox="0 0 612 612" style="enable-background:new 0 0 612 612;" xml:space="preserve">
<style type="text/css">
	.st0{fill:#6B246B;}
</style>
<g>
	<g>
		<path class="st0" d="M612,251.2c0-117.3-113.8-212.7-253.6-212.7c-139.8,0-253.6,95.4-253.6,212.7s113.8,212.7,253.6,212.7
			c11.8,0,23.6-0.7,35.2-2c53.9,34.2,93.6,52.9,118.3,55.7c0.9,0.1,1.7,0.1,2.6,0.1c7.9,0,15.2-3.9,19.6-10.6
			c4.9-7.4,5.2-16.8,0.9-24.5c-0.2-0.4-19.2-35.1-13.7-68.2C579,374,612,314.8,612,251.2z M289.5,283.3c-20.8,0-37.6-16.8-37.6-37.6
			c0-20.7,16.8-37.6,37.6-37.6c20.7,0,37.6,16.8,37.6,37.6C327.1,266.5,310.3,283.3,289.5,283.3z M427.3,283.3
			c-20.8,0-37.6-16.8-37.6-37.6c0-20.7,16.8-37.6,37.6-37.6c20.7,0,37.6,16.8,37.6,37.6C464.8,266.5,448,283.3,427.3,283.3z"/>
		<path class="st0" d="M158.3,421.3c-25.2-20.8-45-45.2-59-72.5c-14.7-28.7-22.2-59.3-22.2-90.9c0-31.6,7.5-62.1,22.2-90.9
			c1.1-2.2,2.3-4.4,3.5-6.5C40.8,196.1,0,255.5,0,322.7C0,383,32.5,438.9,89.3,476.5c10.5,41.2-13.8,84.8-14.1,85.3
			c-1.4,2.6-1.3,5.7,0.3,8.2c1.5,2.2,3.9,3.5,6.5,3.5c0.3,0,0.6,0,0.9,0c28.4-3.2,78.4-32,116.3-56.4c12.8,1.7,25.8,2.6,38.8,2.6
			c49.8,0,96-12.7,134.3-34.4c-8.5,0.7-17.1,1-25.7,1C275.8,486.3,208.9,463.2,158.3,421.3z"/>
	</g>
</g>
</svg>
