<svg xmlns="http://www.w3.org/2000/svg" width="190.031" height="190.031" viewBox="0 0 190.031 190.031">
  <defs>
    <style>
      .cls-1 {
        fill: #cfbacf;
        fill-rule: evenodd;
      }
    </style>
  </defs>
  <path id="形狀_3_拷貝_2" data-name="形狀 3 拷貝 2" class="cls-1" d="M104.687,196.218L85.905,228.751A94.687,94.687,0,0,1,104.687,196.218ZM120.049,182.2L81.51,248.97q0.376-3.627,1.03-7.164L114.356,186.7C116.191,185.114,118.089,183.619,120.049,182.2Zm11.4-7.137-50.4,87.316c-0.045-1.12-.063-2.239-0.063-3.367,0-.645.009-1.29,0.018-1.934l45.837-79.41C128.348,176.751,129.879,175.883,131.446,175.059Zm9.9-4.558L82.038,273.246c-0.215-1.46-.4-2.929-0.555-4.406l55.773-96.629C138.6,171.612,139.969,171.038,141.347,170.5Zm9.015-3.018-66.435,115.1q-0.483-1.906-.886-3.842L146.611,168.62C147.846,168.209,149.1,167.833,150.362,167.483Zm8.388-1.934L86.442,290.824c-0.4-1.129-.788-2.257-1.137-3.4l69.927-121.156Q156.978,165.862,158.75,165.549Zm7.914-1.11-77.232,133.8c-0.465-1.012-.9-2.042-1.325-3.08l75.236-130.344C164.444,164.672,165.554,164.546,166.664,164.439Zm7.529-.439L92.825,304.971c-0.519-.922-1.011-1.844-1.495-2.784l79.7-138.08C172.081,164.054,173.137,164.017,174.193,164Zm7.189,0.143L96.541,311.132c-0.555-.842-1.1-1.692-1.629-2.56l83.445-144.563C179.368,164.036,180.379,164.08,181.382,164.143Zm6.911,0.627L100.551,316.783c-0.6-.77-1.181-1.559-1.746-2.355l86.57-149.98C186.35,164.537,187.326,164.645,188.293,164.77Zm6.634,1.11-90.1,156.087c-0.636-.707-1.254-1.433-1.854-2.157l89.156-154.458C193.074,165.513,194.005,165.683,194.927,165.88Zm6.392,1.523L109.352,326.74c-0.663-.653-1.317-1.307-1.961-1.979L198.624,166.7C199.529,166.919,200.424,167.152,201.319,167.4Zm6.159,1.934L114.105,331.11c-0.7-.591-1.388-1.2-2.059-1.818l92.827-160.833C205.751,168.737,206.618,169.024,207.478,169.337Zm5.936,2.31L119.065,335.1c-0.726-.537-1.433-1.093-2.14-1.648l93.991-162.839C211.757,170.94,212.589,171.289,213.414,171.647Zm5.729,2.687L124.257,338.722c-0.752-.484-1.5-0.986-2.238-1.5l94.707-164.074C217.54,173.527,218.346,173.921,219.143,174.334Zm5.506,3.053-95,164.585c-0.788-.43-1.557-0.877-2.328-1.344l95-164.593C223.109,176.473,223.879,176.921,224.649,177.387Zm5.3,3.412-94.7,164.075c-0.816-.386-1.63-0.78-2.427-1.192l94.887-164.388C228.462,179.778,229.214,180.279,229.948,180.8Zm5.1,3.779L141.06,347.408c-0.841-.332-1.683-0.681-2.506-1.039L232.9,182.912Q233.991,183.731,235.051,184.578Zm4.87,4.145L147.1,349.556c-0.869-.278-1.737-0.564-2.6-0.877l93.373-161.764C238.56,187.5,239.241,188.106,239.921,188.723Zm4.656,4.541L153.343,351.312c-0.9-.215-1.8-0.448-2.695-0.708l91.968-159.328Q243.623,192.255,244.577,193.264Zm4.413,4.942L159.842,352.664c-0.94-.152-1.871-0.332-2.792-0.52l90.1-156.1C247.773,196.756,248.39,197.481,248.99,198.206Zm4.172,5.382-86.569,149.98c-0.976-.089-1.952-0.2-2.919-0.322l87.742-152.013C252.016,202,252.6,202.791,253.162,203.588Zm3.894,5.856L173.611,354.007c-1.011-.027-2.023-0.072-3.026-0.134l84.842-146.99C255.991,207.725,256.537,208.576,257.056,209.444Zm3.581,6.385-79.694,138.08c-1.047.053-2.1,0.089-3.16,0.107l81.368-140.972C259.67,213.966,260.163,214.889,260.637,215.829Zm3.232,7.02L188.625,353.2c-1.1.144-2.2,0.269-3.322,0.376l77.232-133.8C263,220.79,263.448,221.811,263.869,222.849Zm2.8,7.737L196.735,351.75c-1.164.269-2.336,0.511-3.518,0.717l72.317-125.275C265.937,228.312,266.313,229.449,266.671,230.586Zm2.265,8.677L205.365,349.4c-1.235.413-2.488,0.789-3.751,1.138l66.435-115.1C268.372,236.7,268.668,237.974,268.936,239.263Zm1.549,9.9-55.773,96.638c-1.352.609-2.713,1.173-4.092,1.719l59.319-102.763C270.153,246.221,270.341,247.69,270.485,249.167Zm0.51,9.841c0,0.645-.009,1.289-0.018,1.925l-45.845,79.418q-2.256,1.371-4.61,2.606l50.411-87.325C270.977,256.751,271,257.88,271,259.008Zm-0.528,10.02q-0.376,3.627-1.03,7.155l-31.825,55.142c-1.835,1.576-3.743,3.081-5.7,4.5Zm-4.387,20.211a94.835,94.835,0,0,1-18.8,32.576Z" transform="translate(-80.969 -164)"/>
</svg>
