<?xml version="1.0" encoding="utf-8"?>
<!-- Generator: $$$/GeneralStr/196=Adobe Illustrator 27.6.0, SVG Export Plug-In . SVG Version: 6.00 Build 0)  -->
<svg version="1.1" id="Capa_1" xmlns="http://www.w3.org/2000/svg" xmlns:xlink="http://www.w3.org/1999/xlink" x="0px" y="0px"
	 viewBox="0 0 423.3 328" style="enable-background:new 0 0 423.3 328;" xml:space="preserve">
<style type="text/css">
	.st0{fill:#6B246B;}
</style>
<g>
	<g>
		<g>
			<path class="st0" d="M228.6,255.4h1.4c1.8-1.3,3.8-2.3,5.9-3h2.6c1.6-0.7,3.3-1.1,5-1h2.6c2-0.6,4-1.1,6.1-1.4h1.4l7.3-1h2h5
				h103.4V17.5h-89.7c-33.5,0-60.6,27.1-60.6,60.6l0.8,181.2C224,257.8,226.2,256.5,228.6,255.4z"/>
			<polygon class="st0" points="51.9,17.1 51.9,17.5 51.9,17.5 			"/>
			<path class="st0" d="M389.8,58.7v199c0,0.1,0,0.3,0,0.4c-0.1,5-4.3,9-9.3,8.9h-98.8c-50.9,0-60.6,14.7-60.6,37v4.4
				c21.6-16.8,58.2-16.8,77-16.8h113.3L412,58.7L389.8,58.7L389.8,58.7z"/>
			<path class="st0" d="M155.5,253.2h4.8h2.6l7.5,1h1.4l6.1,1.4h2.6c1.7,0.1,3.4,0.4,5,1h2.6l5.9,3h1.4c2.1,1.4,4.4,2.7,6.7,3.8
				V78.1c0-33.5-27.1-60.6-60.6-60.6H51.9v235.7H155.5z"/>
			<path class="st0" d="M141.5,267.6H42.8c-5-0.2-9.1-4.2-9.3-9.3V58.7H11.3v232.5h112.5c20.2,0,57,0,78.6,17.2l-0.2-3.8
				C202.1,282.3,192,267.6,141.5,267.6z"/>
		</g>
	</g>
</g>
</svg>
