<svg xmlns="http://www.w3.org/2000/svg" width="43.531" height="43.5" viewBox="0 0 43.531 43.5">
  <defs>
    <style>
      .cls-1 {
        fill: #6b246b;
        fill-rule: evenodd;
      }
    </style>
  </defs>
  <path id="形狀_38" data-name="形狀 38" class="cls-1" d="M458.255,1411.23c0,3.92-5.113,8.8-7.66,10.84a2.241,2.241,0,0,1-2.81,0c-2.547-2.05-7.659-6.92-7.659-10.84a4.552,4.552,0,1,1,9.064,0A4.553,4.553,0,1,1,458.255,1411.23Zm13.3,17.4-13.96,15.25a18.16,18.16,0,0,1-13.372,5.87H436.5a7.247,7.247,0,0,1-7.252-7.25v-9.06a7.247,7.247,0,0,1,7.252-7.25h14.117a4.013,4.013,0,0,1,4.013,4.03,3.9,3.9,0,0,1-.09.83,4.131,4.131,0,0,1-3.517,3.14l-7.547,1.06a1.812,1.812,0,0,0-1.538,2.05h0a1.816,1.816,0,0,0,2.051,1.54l7.708-1.09a7.672,7.672,0,0,0,6.558-7.55,7.477,7.477,0,0,0-.118-1.16l6.421-6.77a4.726,4.726,0,0,1,7,6.35v0.01Z" transform="translate(-429.25 -1406.25)"/>
</svg>
