<?xml version="1.0" encoding="utf-8"?>
<!-- Generator: $$$/GeneralStr/196=Adobe Illustrator 27.6.0, SVG Export Plug-In . SVG Version: 6.00 Build 0)  -->
<svg version="1.1" id="Layer_1" xmlns="http://www.w3.org/2000/svg" xmlns:xlink="http://www.w3.org/1999/xlink" x="0px" y="0px"
	 viewBox="0 0 51 50.9" style="enable-background:new 0 0 51 50.9;" xml:space="preserve">
<style type="text/css">
	.st0{fill-rule:evenodd;clip-rule:evenodd;fill:#6B246B;}
</style>
<path class="st0" d="M7.8,40.2h0.7h4.3h5.7h4.3h5.7h4.3h5.7h4.3h0.7c1.2,0,2.1-1,2.1-2.1c0-1.2-1-2.1-2.1-2.1h-0.7V24.6h0.7
	c1.2,0,2.1-1,2.1-2.1c0-1.2-1-2.1-2.1-2.1h-2.8h-9.9h-9.9h-9.9H7.8c-1.2,0-2.1,1-2.1,2.1c0,1.2,1,2.1,2.1,2.1h0.7v11.4H7.8
	c-1.2,0-2.1,1-2.1,2.1C5.7,39.2,6.6,40.2,7.8,40.2L7.8,40.2z M46.8,17.5H4.3c-0.8,0-1.4-0.6-1.4-1.4c0-0.6,0.3-1,0.8-1.3L24.7,2.2
	c0.2-0.2,0.5-0.3,0.8-0.3c0.3,0,0.6,0.1,0.8,0.3l21.1,12.7c0.5,0.2,0.8,0.7,0.8,1.3C48.2,16.9,47.6,17.5,46.8,17.5L46.8,17.5z
	 M25.5,7.6c-1.6,0-2.8,1.3-2.8,2.8c0,1.6,1.3,2.8,2.8,2.8s2.8-1.3,2.8-2.8C28.4,8.8,27.1,7.6,25.5,7.6L25.5,7.6z M38.3,24.6v11.4
	h-5.7V24.6H38.3L38.3,24.6z M28.4,24.6v11.4h-5.7V24.6H28.4L28.4,24.6z M18.4,24.6v11.4h-5.7V24.6H18.4L18.4,24.6z M5,47.3h41.1
	c1.2,0,2.1-1,2.1-2.1c0-1.2-1-2.1-2.1-2.1H5c-1.2,0-2.1,1-2.1,2.1C2.8,46.3,3.8,47.3,5,47.3z"/>
</svg>
