<svg xmlns="http://www.w3.org/2000/svg" width="44.469" height="44.47" viewBox="0 0 44.469 44.47">
  <defs>
    <style>
      .cls-1 {
        fill: #6b246b;
        fill-rule: evenodd;
      }
    </style>
  </defs>
  <path id="形狀_40" data-name="形狀 40" class="cls-1" d="M707.049,1425.91H699a9.28,9.28,0,0,1,9.267-9.27h11.12v-8.09a3.036,3.036,0,0,1,3.036-3.03,3,3,0,0,1,1.282.29l5.931,2.78a1.852,1.852,0,0,1,.6,2.55,1.886,1.886,0,0,1-.6.6l-6.542,3.05v1.85h11.12a9.28,9.28,0,0,1,9.266,9.27h-8.049a5.564,5.564,0,0,1-3.877-1.58l-5.071-5.52a7.547,7.547,0,0,0-10.54.06l-4.963,5.41a5.618,5.618,0,0,1-3.931,1.63h0Zm14.191,14.82a1.855,1.855,0,0,0-1.853,1.86V1450h3.707v-7.41A1.855,1.855,0,0,0,721.24,1440.73Zm14.191-11.12h8.049v14.83a5.56,5.56,0,0,1-5.56,5.56H726.8v-7.41a5.56,5.56,0,1,0-11.12,0V1450H704.56a5.56,5.56,0,0,1-5.56-5.56v-14.83h8.049a9.23,9.23,0,0,0,6.607-2.77l4.964-5.41a3.841,3.841,0,0,1,5.189-.05l5.074,5.52a9.194,9.194,0,0,0,6.548,2.71h0Zm-25.311,14.83a1.853,1.853,0,0,0-1.853-1.85h-1.854a1.85,1.85,0,1,0,0,3.7h1.854A1.853,1.853,0,0,0,710.12,1444.44Zm0-7.41a1.855,1.855,0,0,0-1.853-1.86h-1.854a1.855,1.855,0,0,0,0,3.71h1.854A1.853,1.853,0,0,0,710.12,1437.03Zm14.827-7.42a3.707,3.707,0,1,0-3.707,3.71A3.706,3.706,0,0,0,724.947,1429.61Zm12.973,14.83a1.852,1.852,0,0,0-1.853-1.85h-1.853a1.85,1.85,0,1,0,0,3.7h1.853A1.852,1.852,0,0,0,737.92,1444.44Zm-1.853-9.27h-1.853a1.855,1.855,0,0,0,0,3.71h1.853A1.855,1.855,0,0,0,736.067,1435.17Z" transform="translate(-699 -1405.53)"/>
</svg>
