<svg xmlns="http://www.w3.org/2000/svg" width="34" height="39" viewBox="0 0 34 39">
  <defs>
    <style>
      .cls-1 {
        fill: #6b246b;
        fill-rule: evenodd;
      }
    </style>
  </defs>
  <path id="形狀_37" data-name="形狀 37" class="cls-1" d="M860.4,1420.37v-10.62a12.027,12.027,0,0,1,4.19,2.58l5.923,5.67a11.232,11.232,0,0,1,2.7,4H862.1a1.666,1.666,0,0,1-1.7-1.63h0Zm13.6,5.67v13.84a8.331,8.331,0,0,1-8.5,8.12h-17a8.331,8.331,0,0,1-8.5-8.12v-22.75a8.333,8.333,0,0,1,8.5-8.13h7.675c0.278,0,.551.02,0.825,0.04v11.33a4.99,4.99,0,0,0,5.1,4.88h11.859c0.019,0.26.041,0.52,0.041,0.79h0Zm-13.6,13.84a1.666,1.666,0,0,0-1.7-1.63h-8.5a1.627,1.627,0,1,0,0,3.25h8.5A1.664,1.664,0,0,0,860.4,1439.88Zm5.1-6.51a1.664,1.664,0,0,0-1.7-1.62H850.2a1.627,1.627,0,1,0,0,3.25h13.6A1.666,1.666,0,0,0,865.5,1433.37Z" transform="translate(-840 -1409)"/>
</svg>
