<?xml version="1.0" encoding="utf-8"?>
<!-- Generator: $$$/GeneralStr/196=Adobe Illustrator 27.6.0, SVG Export Plug-In . SVG Version: 6.00 Build 0)  -->
<svg version="1.1" id="Layer_1" xmlns="http://www.w3.org/2000/svg" xmlns:xlink="http://www.w3.org/1999/xlink" x="0px" y="0px"
	 viewBox="0 0 512 512" style="enable-background:new 0 0 512 512;" xml:space="preserve">
<style type="text/css">
	.st0{fill:#6B246B;}
</style>
<path class="st0" d="M256,193c-52.1,0-94.5-42.4-94.5-94.5S203.9,4.1,256,4.1s94.5,42.4,94.5,94.5S308.1,193,256,193z M485.3,207.3
	c-14.4-12-33.1-17-52.8-13.4L345.9,215c-39.9,7.3-68.9,42-68.9,82.6v163.8l-21,3.8l-21-3.8V297.6c0-40.6-29-75.3-67.7-82.3
	l-88.9-21.6c-18.5-3.4-37.2,1.6-51.6,13.6c-14.4,12-22.6,29.6-22.6,48.3v206.4L256,507.9l251.9-45.8V255.7
	C507.9,236.9,499.6,219.3,485.3,207.3z"/>
</svg>
