<?xml version="1.0" encoding="utf-8"?>
<!-- Generator: $$$/GeneralStr/196=Adobe Illustrator 27.6.0, SVG Export Plug-In . SVG Version: 6.00 Build 0)  -->
<svg version="1.1" id="Capa_1" xmlns="http://www.w3.org/2000/svg" xmlns:xlink="http://www.w3.org/1999/xlink" x="0px" y="0px"
	 viewBox="0 0 612 612" style="enable-background:new 0 0 612 612;" xml:space="preserve">
<style type="text/css">
	.st0{fill:#6B246B;}
</style>
<g>
	<g>
		<path class="st0" d="M606,252.3c0-115-111.5-208.5-248.6-208.5c-137.1,0-248.6,93.5-248.6,208.5s111.5,208.5,248.6,208.5
			c11.5,0,23.1-0.7,34.5-2c52.8,33.5,91.8,51.9,116,54.6c0.8,0.1,1.7,0.1,2.5,0.1c7.8,0,14.9-3.9,19.2-10.4c4.8-7.3,5.1-16.5,0.8-24
			c-0.2-0.4-18.8-34.4-13.5-66.9C573.6,372.6,606,314.6,606,252.3z M289.8,283.7c-20.3,0-36.8-16.5-36.8-36.8
			c0-20.3,16.5-36.8,36.8-36.8c20.3,0,36.8,16.5,36.8,36.8C326.7,267.3,310.2,283.7,289.8,283.7z M424.9,283.7
			c-20.3,0-36.8-16.5-36.8-36.8c0-20.3,16.5-36.8,36.8-36.8c20.3,0,36.8,16.5,36.8,36.8C461.7,267.3,445.2,283.7,424.9,283.7z"/>
		<path class="st0" d="M161.2,419.1c-24.7-20.4-44.1-44.3-57.8-71.1c-14.4-28.2-21.7-58.2-21.7-89.1c0-30.9,7.3-60.9,21.7-89.1
			c1.1-2.2,2.3-4.3,3.4-6.4C46,198.3,6,256.5,6,322.3c0,59.1,31.9,114,87.5,150.9c10.3,40.4-13.6,83.2-13.8,83.6
			c-1.4,2.5-1.3,5.6,0.3,8c1.4,2.2,3.8,3.5,6.4,3.5c0.3,0,0.6,0,0.9,0c27.8-3.1,76.9-31.4,114-55.3c12.5,1.7,25.3,2.6,38.1,2.6
			c48.8,0,94.1-12.5,131.6-33.8c-8.4,0.7-16.8,1-25.2,1C276.4,482.8,210.8,460.2,161.2,419.1z"/>
	</g>
</g>
</svg>
