<svg xmlns="http://www.w3.org/2000/svg" width="42" height="41.969" viewBox="0 0 42 41.969">
  <defs>
    <style>
      .cls-1 {
        fill: #6b246b;
        fill-rule: evenodd;
      }
    </style>
  </defs>
  <path id="形狀_44" data-name="形狀 44" class="cls-1" d="M179.679,650.6a0.81,0.81,0,0,0,0-1.245l-3.6-3.149a1.527,1.527,0,0,1-.4-1.517l1.541-4.525a0.807,0.807,0,0,0-.623-1.08l-4.688-.925a1.533,1.533,0,0,1-1.114-1.112l-0.926-4.691a0.806,0.806,0,0,0-1.077-.621l-4.528,1.542a1.539,1.539,0,0,1-1.52-.407l-3.144-3.6a0.809,0.809,0,0,0-1.249,0l-3.144,3.6a1.537,1.537,0,0,1-1.522.407l-4.522-1.542a0.809,0.809,0,0,0-1.082.621l-0.923,4.691a1.544,1.544,0,0,1-1.114,1.112l-4.69.925a0.805,0.805,0,0,0-.623,1.08l1.545,4.525a1.525,1.525,0,0,1-.408,1.517l-3.6,3.149a0.8,0.8,0,0,0,0,1.245l3.6,3.147a1.525,1.525,0,0,1,.408,1.518l-1.545,4.523a0.807,0.807,0,0,0,.623,1.083l4.69,0.926a1.537,1.537,0,0,1,1.114,1.111l0.923,4.689a0.809,0.809,0,0,0,1.082.624l4.522-1.545a1.54,1.54,0,0,1,1.522.408l3.144,3.6a0.808,0.808,0,0,0,1.249,0l3.144-3.6a1.542,1.542,0,0,1,1.52-.408l4.528,1.545a0.807,0.807,0,0,0,1.077-.624l0.926-4.689a1.525,1.525,0,0,1,1.114-1.111l4.688-.926a0.808,0.808,0,0,0,.623-1.083l-1.541-4.523a1.527,1.527,0,0,1,.4-1.518Zm-26.7,7.6a1.52,1.52,0,0,1-1.97-.467l-2.679-2.911,1.263,3.3a1.3,1.3,0,0,1-.016.99,1.258,1.258,0,0,1-.7.656l-0.019.007a1.244,1.244,0,0,1-1.613-.757l-2.908-7.609a1.237,1.237,0,0,1,.8-1.681,1.527,1.527,0,0,1,1.882.494l2.665,2.871-1.245-3.255a1.3,1.3,0,0,1,.012-0.991,1.267,1.267,0,0,1,.7-0.656,1.254,1.254,0,0,1,1.635.753l2.873,7.534A1.266,1.266,0,0,1,152.982,658.2Zm6.8-2.769-3.355,1.279-0.035.013a1.183,1.183,0,0,1-1.678-.775l-2.754-7.212a1.193,1.193,0,0,1,.768-1.712L156,645.778a1.144,1.144,0,0,1,1.626.624,1.111,1.111,0,0,1,0,.873,1.356,1.356,0,0,1-.8.677l-2.15.823,0.535,1.4,1.988-.763a1.171,1.171,0,1,1,.829,2.175l-1.991.76,0.671,1.754,2.244-.856A1.173,1.173,0,1,1,159.782,655.429Zm8.661-3.106a1.293,1.293,0,0,1-1.949-.7l-1.612-2.72,0.7,3.4a1.226,1.226,0,0,1-1.043,1.5l-0.067.023a1.252,1.252,0,0,1-1.751-.492l-4.118-6.685a5.052,5.052,0,0,1-.362-0.672,1.184,1.184,0,0,1,.824-1.553,1.128,1.128,0,0,1,1.489.569l2.348,4.041-0.957-4.6a1.068,1.068,0,0,1,.731-1.387,1.083,1.083,0,0,1,1.461.553l2.419,4.021-1.011-4.481a1.183,1.183,0,0,1,.805-1.5,1.1,1.1,0,0,1,1.574.675,3.386,3.386,0,0,1,.169.7l1.418,7.528C169.711,651.642,169.415,651.95,168.443,652.323Zm2.425-5.743-0.916-1.634c-0.2-.4-0.319-0.686-0.4-0.907l-0.735-1.925a1.3,1.3,0,0,1-.018-1.023,1.237,1.237,0,0,1,.726-0.637,1.2,1.2,0,0,1,1.641.76l0.733,1.931c0.083,0.218.179,0.508,0.295,0.927l0.452,1.852a0.928,0.928,0,0,1-.525,1.3l-0.021.009A0.93,0.93,0,0,1,170.868,646.58Zm3.242,3.156a1.365,1.365,0,0,1-.766.726l-0.021.007a1.379,1.379,0,0,1-1.753-.805,1.363,1.363,0,0,1,.023-1.051,1.381,1.381,0,0,1,2.548.068A1.355,1.355,0,0,1,174.11,649.736Z" transform="translate(-137.969 -629)"/>
</svg>
