<svg xmlns="http://www.w3.org/2000/svg" width="43.06" height="43.06" viewBox="0 0 43.06 43.06">
  <defs>
    <style>
      .cls-1 {
        fill: #6b246b;
        fill-rule: evenodd;
      }
    </style>
  </defs>
  <path id="形狀_35" data-name="形狀 35" class="cls-1" d="M1105.98,1441.05h8.97v8.97h-3.59a5.382,5.382,0,0,1-5.38-5.38v-3.59Zm8.97-25.1v-8.97h-3.59a5.382,5.382,0,0,0-5.38,5.38v3.59h8.97Zm12.55,0v-3.59a5.382,5.382,0,0,0-5.38-5.38h-3.59v8.97h8.97Zm-21.52,3.58v17.94h8.97v-17.94h-8.97Zm12.55,0v17.94h8.97v-17.94h-8.97Zm0,30.49h3.59a5.382,5.382,0,0,0,5.38-5.38v-3.59h-8.97v8.97Zm11.52-29.63,6.53,19.63,9.71-3.22-6.53-19.63-9.71,3.22h0Zm7.66,23.03,1.42,4.15a3.6,3.6,0,0,0,4.54,2.27l2.89-.96a3.6,3.6,0,0,0,2.28-4.54l-1.42-4.14-9.71,3.22h0Zm-8.79-26.43,9.71-3.22-1.44-4.33a3.6,3.6,0,0,0-4.54-2.28l-2.89.96a3.6,3.6,0,0,0-2.28,4.54l1.44,4.33h0Z" transform="translate(-1105.97 -1406.97)"/>
</svg>
