<svg xmlns="http://www.w3.org/2000/svg" width="43.438" height="43.44" viewBox="0 0 43.438 43.44">
  <defs>
    <style>
      .cls-1 {
        fill: #6b246b;
        fill-rule: evenodd;
      }
    </style>
  </defs>
  <path id="形狀_41" data-name="形狀 41" class="cls-1" d="M301.238,1420.93v-8.62c0-2.18,1.147-5.74,6.646-5.74a17.034,17.034,0,0,1,2.14.17,5.393,5.393,0,0,1,3.88,5.16v14.34a7.154,7.154,0,0,0,3.618,0V1411.9a5.393,5.393,0,0,1,3.88-5.16,17.022,17.022,0,0,1,2.14-.16c5.5-.01,6.646,3.55,6.646,5.73v8.62a7.268,7.268,0,0,1-5.247,6.96l-6.244,1.79a11.01,11.01,0,0,1-5.971,0l-6.241-1.79a7.267,7.267,0,0,1-5.247-6.96h0Zm32.569-7.08v7.08a10.9,10.9,0,0,1-7.876,10.44l-6.241,1.78a14.33,14.33,0,0,1-7.951,0l-6.246-1.78a10.912,10.912,0,0,1-7.874-10.44v-7.08a9,9,0,0,0-3.619,7.19v12.67a9.059,9.059,0,0,0,9.047,9.05H313.9v3.62h-5.429a1.81,1.81,0,0,0,0,3.62H322.95a1.81,1.81,0,1,0,0-3.62h-5.428v-3.62h10.857a9.059,9.059,0,0,0,9.047-9.05v-12.67A9,9,0,0,0,333.807,1413.85Z" transform="translate(-294 -1406.56)"/>
</svg>
