<svg xmlns="http://www.w3.org/2000/svg" width="39" height="39" viewBox="0 0 39 39">
  <defs>
    <style>
      .cls-1 {
        fill: #6b246b;
        fill-rule: evenodd;
      }
    </style>
  </defs>
  <path id="形狀_36" data-name="形狀 36" class="cls-1" d="M989.66,1435h-6.91v-26h14.625a8.129,8.129,0,0,1,8.125,8.13v8.53A13.015,13.015,0,0,0,989.66,1435Zm-12.768.1a8.031,8.031,0,0,0-3.892,1.57v-19.54a8.126,8.126,0,0,1,6.5-7.97V1435h-1.625A4.639,4.639,0,0,0,976.892,1435.1Zm16.76,12.9H977.875a4.875,4.875,0,1,1,0-9.75H989.25A12.97,12.97,0,0,0,993.652,1448Zm-1.152-9.75a9.75,9.75,0,1,0,9.75-9.75A9.747,9.747,0,0,0,992.5,1438.25Zm11.77-4.87,2.44,2.44a1.407,1.407,0,0,1,.41,1,1.319,1.319,0,0,1-.11.55,1.43,1.43,0,0,1-1.32.88h-1.82v4.87a1.625,1.625,0,1,1-3.25,0v-4.87H998.8a1.434,1.434,0,0,1-1.32-.88,1.41,1.41,0,0,1,.309-1.55l2.439-2.44a2.867,2.867,0,0,1,4.04,0h0Z" transform="translate(-973 -1409)"/>
</svg>
