<?xml version="1.0" encoding="utf-8"?>
<!-- Generator: $$$/GeneralStr/196=Adobe Illustrator 27.6.0, SVG Export Plug-In . SVG Version: 6.00 Build 0)  -->
<svg version="1.1" id="Layer_1" xmlns="http://www.w3.org/2000/svg" xmlns:xlink="http://www.w3.org/1999/xlink" x="0px" y="0px"
	 viewBox="0 0 299.9 299.9" style="enable-background:new 0 0 299.9 299.9;" xml:space="preserve">
<style type="text/css">
	.st0{fill:#6B246B;}
</style>
<path class="st0" d="M0,237.4c0,34.4,28,62.5,62.5,62.5h174.9c34.4,0,62.5-28,62.5-62.5V125H0V237.4z M104.9,195.9H133l7.4-28.5
	c1.2-4.5,5.2-7.7,9.9-7.8c4.7,0.1,8.7,3.2,9.9,7.8l7.4,28.5h28.1c5.6,0,9.1,4.4,9.1,8.4c0,4.7-3.3,8.7-7.1,10.8L178.3,226l8.7,23.7
	c1.7,4.6,0.2,9.7-3.7,12.7l0,0c-4,3-9.5,3-13.4-0.1l-19.4-15l-19.4,15c-3.9,3-9.4,3.1-13.4,0.1l0,0c-3.9-2.9-5.4-8.1-3.7-12.7
	l8.7-23.7l-19.5-10.9c-3.8-2.1-7.1-6.1-7.1-10.8C95.8,200.3,99.3,195.9,104.9,195.9L104.9,195.9z M299.9,87.5V100H0V87.5
	C0,53,28,25,62.5,25H75V12.5C75,5.6,80.6,0,87.5,0C94.4,0,100,5.6,100,12.5V25h100V12.5c0-6.9,5.6-12.5,12.5-12.5
	c6.9,0,12.5,5.6,12.5,12.5V25h12.5C271.9,25,299.9,53,299.9,87.5z"/>
</svg>
