<?xml version="1.0" encoding="utf-8"?>
<!-- Generator: $$$/GeneralStr/196=Adobe Illustrator 27.6.0, SVG Export Plug-In . SVG Version: 6.00 Build 0)  -->
<svg version="1.1" id="圖層_1" xmlns="http://www.w3.org/2000/svg" xmlns:xlink="http://www.w3.org/1999/xlink" x="0px" y="0px"
	 viewBox="0 0 440.6 81.3" style="enable-background:new 0 0 440.6 81.3;" xml:space="preserve">
<style type="text/css">
	.st0{fill-rule:evenodd;clip-rule:evenodd;fill:#FFFFFF;}
	.st1{fill:#FFFFFF;}
</style>
<g>
	<path class="st0" d="M63,55.3L63,55.3L63,55.3L63,55.3z M63,55.4c-4.6,6.2-12.1,10.3-20.5,10.3c-8.4,0-15.9-4.1-20.5-10.3
		c2.2-0.5,10.9-2,20.5,3.7v0l0,0l0,0v0C51.9,53.5,60.6,54.9,63,55.4L63,55.4z M21.9,55.4L21.9,55.4L21.9,55.4z"/>
	<path class="st1" d="M48.3,63.8v-0.6c0.2,0,0.4,0,0.5,0c0.1,0,0.2-0.1,0.3-0.1c0.1-0.1,0.1-0.2,0.1-0.3c0-0.1,0-0.2-0.1-0.3
		c-0.1-0.1-0.1-0.1-0.2-0.2c-0.1,0-0.3,0-0.5-0.1v-0.6c0.2,0,0.3,0,0.3,0c0.1,0,0.2-0.1,0.3-0.1c0.1-0.1,0.1-0.2,0.1-0.3
		c0-0.1,0-0.2-0.1-0.3c-0.1-0.1-0.2-0.1-0.3-0.1c0,0-0.2,0-0.3,0v-0.6h0c0.3,0,0.5,0,0.6,0c0.1,0,0.3,0.1,0.4,0.1
		c0.1,0.1,0.2,0.2,0.3,0.3c0.1,0.1,0.1,0.3,0.1,0.4c0,0.2,0,0.3-0.1,0.5c-0.1,0.1-0.2,0.2-0.4,0.3c0.2,0.1,0.4,0.2,0.5,0.3
		c0.1,0.2,0.2,0.3,0.2,0.5c0,0.2,0,0.3-0.1,0.5c-0.1,0.2-0.2,0.3-0.3,0.4c-0.1,0.1-0.3,0.1-0.5,0.2C48.8,63.8,48.6,63.8,48.3,63.8z
		 M35.8,63.8v-3.6h0.7l1.5,2.4v-2.4h0.7v3.6h-0.7l-1.4-2.3v2.3H35.8L35.8,63.8z M48.3,60.3v0.6H48h-0.4v0.8H48l0.2,0v0.6h-0.1h-0.6
		v1h0.7l0,0v0.6l-0.2,0h-1.2v-3.6H48.3L48.3,60.3z M40.4,63.8v-3h-1.1v-0.6h2.8v0.6h-1.1v3H40.4L40.4,63.8z M43,60.3h0.7v1.9
		c0,0.3,0,0.5,0,0.6c0,0.1,0.1,0.3,0.2,0.4c0.1,0.1,0.3,0.1,0.5,0.1c0.2,0,0.4,0,0.5-0.1c0.1-0.1,0.2-0.2,0.2-0.3c0-0.1,0-0.3,0-0.6
		v-2h0.7v1.9c0,0.4,0,0.7-0.1,0.9c0,0.2-0.1,0.3-0.2,0.4c-0.1,0.1-0.2,0.2-0.4,0.3c-0.2,0.1-0.4,0.1-0.7,0.1c-0.3,0-0.6,0-0.8-0.1
		c-0.2-0.1-0.3-0.2-0.4-0.3c-0.1-0.1-0.2-0.3-0.2-0.4c0-0.2-0.1-0.5-0.1-0.9V60.3z"/>
	<path class="st0" d="M64.5,28.9c2.1,3.6,3.2,7.7,3.2,12.1c0,2.4-0.4,4.7-1,6.9c-0.8,0-1.5,0-2.2,0V28.9L64.5,28.9z M64.5,53.1
		L64.5,53.1L64.5,53.1z M42.4,16.2c9.5,0,17.7,5.1,22,12.6v19.1c-14.9,0.5-21.9,7.9-22.1,8.1l0,0V44.5h0h1.9
		c0.7,2.7,1.3,2.6,1.3,2.6h10.3c-5-11.4-3.6-19.9-3.6-19.9h-4.2c0.1-1.2,0.2-1.8,0.3-2.7h4.2l0.5-2.7h-7.4l0.3-1.1h-3.6L42.4,16.2
		L42.4,16.2L42.4,16.2z M42.4,27.1h2.5c0,0,0.1-1.5,0.3-2.6h-2.8V27.1L42.4,27.1z M64.5,53.1L64.5,53.1L64.5,53.1L64.5,53.1z
		 M42.4,56c-0.3-0.3-7.9-8.3-24.2-8.1c-0.7-2.2-1-4.5-1-6.9c0-13.7,11.3-24.7,25.2-24.8v4.5h-3.5l0.3,1.1h-7.6l0.6,2.7h4.1
		c0.1,0.7,0.2,1.4,0.3,2.7h-4.2c0,0,1.5,8.1-3.6,19.9h10.3c0,0,0.6,0.1,1.3-2.6h1.9h0V56L42.4,56z M42.4,24.5h-2.8
		c0.1,0.5,0.2,1.2,0.3,2.6h2.5V24.5z"/>
	<path class="st0" d="M43.3,28.2c3.8,0.5,6.8,3.7,6.8,7.5c0,3.9-3,7.1-6.8,7.5V42c3.1-0.5,5.4-3.1,5.4-6.2c0-3.1-2.3-5.7-5.4-6.2
		V28.2z"/>
	<path class="st0" d="M43.3,30.6c2.5,0.4,4.4,2.6,4.4,5.2c0,2.6-1.9,4.8-4.4,5.2v-1.4c1.8-0.4,3.1-2,3.1-3.8c0-1.9-1.3-3.4-3.1-3.8
		V30.6z"/>
	<path class="st0" d="M41.5,28.2c-3.8,0.5-6.8,3.7-6.8,7.5c0,3.9,3,7.1,6.8,7.5V42c-3.1-0.5-5.4-3.1-5.4-6.2c0-3.1,2.3-5.7,5.4-6.2
		V28.2z"/>
	<path class="st0" d="M41.5,30.6c-2.5,0.4-4.4,2.6-4.4,5.2c0,2.6,1.9,4.8,4.4,5.2v-1.4c-1.8-0.4-3.1-2-3.1-3.8
		c0-1.9,1.3-3.4,3.1-3.8V30.6z"/>
	<path class="st1" d="M73.4,54.6v-0.5l0.6,0.3l-0.2,0.5L73.4,54.6L73.4,54.6z M73.4,52.5V52l1.4,0.6L74.6,53L73.4,52.5L73.4,52.5z
		 M73.4,51.2v-0.6c0,0,0.1,0,0.1,0l0.4-1.6c-0.2,0-0.4,0-0.5,0v-0.5c0.3-0.1,0.6-0.1,0.9,0c0,0,0.1,0,0.1,0l-0.6,2.2
		c0.3,0.1,0.6,0,0.8-0.1c0.2-0.1,0.3-0.3,0.4-0.5c0-0.2,0-0.3,0-0.5c-0.1-0.2-0.2-0.3-0.4-0.4l0.2-0.5c0.3,0.2,0.5,0.4,0.6,0.6
		c0.1,0.3,0.1,0.6,0,0.9c-0.1,0.4-0.3,0.7-0.7,0.9c-0.3,0.2-0.7,0.2-1.2,0.1C73.6,51.3,73.5,51.2,73.4,51.2L73.4,51.2z M73.4,47.6
		V46c0.1-0.2,0.2-0.3,0.3-0.3c0.1-0.1,0.3-0.1,0.5-0.1l0,0.5c-0.2,0-0.3,0-0.4,0.1c-0.1,0.1-0.2,0.2-0.2,0.4c0,0.2,0,0.4,0,0.5
		c0.1,0.1,0.1,0.2,0.2,0.2c0.1,0,0.1,0,0.2,0c0.1,0,0.1-0.1,0.2-0.2c0,0,0.1-0.2,0.2-0.4c0.2-0.3,0.3-0.6,0.4-0.7
		c0.1-0.1,0.2-0.2,0.3-0.3c0.1-0.1,0.3-0.1,0.4,0c0.2,0,0.3,0.1,0.4,0.2c0.1,0.1,0.2,0.3,0.3,0.5c0,0.2,0.1,0.4,0,0.6
		c-0.1,0.4-0.2,0.7-0.4,0.8c-0.2,0.2-0.5,0.3-0.8,0.3l0-0.5c0.2,0,0.4,0,0.5-0.2c0.1-0.1,0.2-0.3,0.3-0.5c0-0.2,0-0.4-0.1-0.5
		c-0.1-0.1-0.2-0.2-0.3-0.2c-0.1,0-0.2,0-0.3,0.1c-0.1,0.1-0.1,0.2-0.3,0.5c-0.2,0.3-0.3,0.6-0.4,0.7c-0.1,0.1-0.2,0.2-0.3,0.3
		c-0.1,0.1-0.3,0.1-0.4,0C73.7,47.8,73.6,47.8,73.4,47.6C73.5,47.7,73.5,47.6,73.4,47.6L73.4,47.6z M75.7,45.1l0-0.5
		c0.2,0,0.4-0.1,0.5-0.2c0.1-0.1,0.2-0.3,0.2-0.5c0-0.2,0-0.4-0.1-0.5c-0.1-0.1-0.2-0.2-0.3-0.2c-0.1,0-0.2,0-0.3,0.1
		c-0.1,0.1-0.1,0.2-0.2,0.5c-0.1,0.4-0.2,0.6-0.3,0.8c-0.1,0.1-0.2,0.2-0.3,0.3c-0.1,0.1-0.3,0.1-0.4,0.1c-0.1,0-0.3,0-0.4-0.1
		c-0.1-0.1-0.2-0.2-0.3-0.3c-0.1-0.1-0.1-0.2-0.1-0.3c0-0.1,0-0.3,0-0.4c0-0.2,0.1-0.4,0.1-0.6c0.1-0.2,0.2-0.3,0.3-0.4
		c0.1-0.1,0.3-0.1,0.5-0.1l0,0.5c-0.2,0-0.3,0.1-0.4,0.2c-0.1,0.1-0.1,0.3-0.2,0.4c0,0.2,0,0.4,0.1,0.5c0.1,0.1,0.2,0.2,0.3,0.2
		c0.1,0,0.1,0,0.2-0.1c0.1,0,0.1-0.1,0.1-0.2c0,0,0.1-0.2,0.2-0.4c0.1-0.4,0.2-0.6,0.3-0.7c0.1-0.1,0.2-0.2,0.3-0.3
		c0.1-0.1,0.3-0.1,0.4-0.1c0.2,0,0.3,0.1,0.5,0.2c0.1,0.1,0.2,0.3,0.3,0.4c0.1,0.2,0.1,0.4,0.1,0.6c0,0.4-0.1,0.7-0.3,0.9
		C76.2,44.9,76,45,75.7,45.1z M73.4,46v1.6c-0.1-0.1-0.1-0.1-0.1-0.2c0-0.1-0.1-0.2-0.1-0.3c0-0.1,0-0.3,0-0.4
		C73.2,46.4,73.3,46.2,73.4,46L73.4,46L73.4,46z M73.4,48.6v0.5c0,0,0,0-0.1,0c-0.2,0.1-0.4,0.3-0.4,0.5c-0.1,0.2,0,0.4,0.1,0.6
		c0.1,0.2,0.2,0.3,0.4,0.4v0.6c-0.3-0.1-0.6-0.3-0.8-0.6c-0.2-0.3-0.2-0.7-0.1-1.1c0.1-0.4,0.3-0.7,0.6-0.8
		C73.2,48.6,73.3,48.6,73.4,48.6L73.4,48.6z M73.4,52v0.5l-0.5-0.2c-0.2-0.1-0.3-0.1-0.4-0.1c-0.1,0-0.2,0-0.3,0.1
		c-0.1,0.1-0.2,0.2-0.2,0.3c-0.1,0.2-0.1,0.4,0,0.6c0.1,0.2,0.3,0.4,0.6,0.5l0.9,0.4v0.5l-2-0.8v-0.5l0.2,0.1
		c-0.2-0.3-0.2-0.7-0.1-1.1c0.1-0.2,0.2-0.3,0.3-0.4c0.1-0.1,0.2-0.2,0.4-0.2c0.1,0,0.3,0,0.4,0c0.1,0,0.2,0.1,0.5,0.2L73.4,52
		L73.4,52z M71.5,58.8v-0.5c0.1-0.1,0.3-0.2,0.4-0.4c0.1-0.2,0.2-0.4,0.1-0.5c0-0.1-0.1-0.3-0.2-0.3c-0.1-0.1-0.2-0.1-0.3,0l0,0
		v-0.6c0,0,0.1,0,0.1,0c0.1,0,0.3,0,0.4,0.1c0.1,0.1,0.3,0.2,0.3,0.4c0.1,0.2,0.1,0.3,0.1,0.5c0,0.2-0.1,0.4-0.2,0.6
		C72,58.5,71.8,58.7,71.5,58.8C71.5,58.8,71.5,58.8,71.5,58.8L71.5,58.8z M71.5,55.3v-0.6l1.9,1l-0.2,0.5L71.5,55.3z M71.5,53.3v0.5
		l-0.3-0.1l0.2-0.4L71.5,53.3L71.5,53.3z M71.5,54.8v0.6l-1-0.5l0.2-0.5L71.5,54.8L71.5,54.8z M71.5,56.5v0.6
		c-0.1,0-0.2,0.2-0.4,0.3c-0.3,0.3-0.5,0.4-0.6,0.5c-0.1,0.1-0.2,0.1-0.3,0.1v-0.5c0,0,0.1,0,0.1-0.1c0,0,0.2-0.1,0.3-0.3
		c0.3-0.3,0.5-0.4,0.6-0.5C71.3,56.6,71.4,56.5,71.5,56.5L71.5,56.5z M71.5,58.3v0.5c-0.2,0.1-0.5,0-0.7-0.1l0.2-0.5
		C71.1,58.4,71.3,58.4,71.5,58.3L71.5,58.3L71.5,58.3z M70.1,61.3v-1.9L71,60l-0.3,0.4l-0.4-0.3c0.1,0.4,0.1,0.7-0.1,1.1
		C70.2,61.2,70.1,61.2,70.1,61.3L70.1,61.3z M70.1,56.5V56c0.1,0,0.1,0,0.2-0.1c0.1,0,0.3,0,0.5,0.1l-0.2,0.5
		C70.5,56.4,70.3,56.4,70.1,56.5C70.2,56.5,70.1,56.5,70.1,56.5L70.1,56.5z M70.1,54.4v-0.3l0.1,0.1L70.1,54.4z M70.1,54.1v0.3
		L70,54.6l-0.5-0.3l0.2-0.5L70.1,54.1L70.1,54.1z M70.1,56v0.5c-0.1,0.1-0.2,0.2-0.3,0.3c-0.1,0.2-0.2,0.4-0.2,0.5
		c0,0.1,0.1,0.2,0.2,0.3c0.1,0,0.1,0,0.2,0c0,0,0.1,0,0.1,0v0.5c0,0,0,0-0.1,0c-0.1,0-0.3,0-0.4-0.1c-0.1-0.1-0.2-0.2-0.3-0.3
		c-0.1-0.1-0.1-0.2-0.1-0.4c0-0.1,0-0.2,0-0.4c0-0.1,0.1-0.3,0.2-0.4c0.1-0.2,0.3-0.4,0.4-0.5C70,56.1,70,56,70.1,56L70.1,56z
		 M70.1,59.4v1.9c-0.1,0.1-0.2,0.2-0.3,0.2c-0.1,0.1-0.3,0.1-0.4,0.1c-0.1,0-0.3,0-0.4-0.1c-0.1,0-0.2-0.1-0.4-0.2l-0.8-0.6v-0.6
		l1,0.7c0.2,0.2,0.4,0.2,0.5,0.3c0.1,0,0.3,0.1,0.4,0c0.1,0,0.2-0.1,0.3-0.2c0.1-0.1,0.1-0.3,0.1-0.4c0-0.2,0-0.3-0.1-0.4
		c-0.1-0.1-0.2-0.3-0.4-0.4l-1.3-0.9l0.3-0.4L70.1,59.4L70.1,59.4z M67.8,63.9v-0.8c0.1-0.1,0.1-0.2,0.1-0.3c0-0.1,0-0.2,0-0.3
		c0-0.1-0.1-0.1-0.1-0.2v-0.7c0.1,0,0.2,0.1,0.3,0.2c0.1,0.1,0.2,0.3,0.3,0.5c0.1,0.2,0.1,0.3,0.1,0.5c0,0.1-0.1,0.3-0.2,0.5
		c-0.1,0.2-0.2,0.3-0.4,0.5L67.8,63.9z M67.8,60.1v0.6l-0.7-0.5l0.3-0.4L67.8,60.1L67.8,60.1z M67.8,61.7v0.7c0,0-0.1-0.1-0.1-0.1
		c-0.1-0.1-0.2-0.2-0.4-0.2c-0.1,0-0.3,0-0.4,0.1l0,0v-0.5c0.2-0.1,0.4-0.2,0.6-0.1C67.6,61.6,67.7,61.6,67.8,61.7L67.8,61.7z
		 M67.8,63.2v0.8l-0.9,1v-0.7l0.7-0.8C67.7,63.4,67.8,63.3,67.8,63.2L67.8,63.2z M66.9,61.7v0.5c-0.1,0.1-0.3,0.2-0.4,0.4L66.1,63
		v-0.7c0.1-0.1,0.2-0.3,0.2-0.3c0.1-0.1,0.1-0.3,0.1-0.4c0-0.1-0.1-0.2-0.2-0.3c0,0-0.1-0.1-0.1-0.1v-0.6c0.2,0,0.3,0.1,0.4,0.2
		c0.1,0.1,0.2,0.3,0.3,0.4C66.9,61.4,66.9,61.6,66.9,61.7C66.8,61.8,66.8,61.7,66.9,61.7L66.9,61.7z M66.9,64.2V65l0,0l-0.7-0.7
		v-0.7L66.9,64.2L66.9,64.2z M66.1,60.5v0.6c-0.1,0-0.2-0.1-0.2-0.1c-0.1,0-0.2,0-0.3,0.1c0,0,0,0-0.1,0v-0.6
		c0.2-0.1,0.4-0.1,0.5-0.1C66.1,60.5,66.1,60.5,66.1,60.5L66.1,60.5z M66.1,62.2V63l-0.3,0.3l0.3,0.3v0.7l-0.6-0.6v-0.8L66.1,62.2
		L66.1,62.2z M65.5,60.6v0.6c-0.1,0.1-0.2,0.2-0.4,0.4l-0.6,0.6l0.9,0.8l0,0v0.8l-1.1-1v-1.1l0.5-0.5C65,60.8,65.3,60.7,65.5,60.6
		L65.5,60.6L65.5,60.6z M64.3,66.9v-0.8l0.5,0.6l-0.4,0.3L64.3,66.9z M64.3,61.6v1.1l-0.5-0.5L64.3,61.6L64.3,61.6z M64.3,66.1v0.8
		l-1.5-1.8l-0.2,0.2v-1.1c0,0,0.1,0.1,0.1,0.2l0.2,0.2l0.4-0.4l0.3,0.3l-0.4,0.4L64.3,66.1L64.3,66.1z M62.6,68.6
		c0.2-0.2,0.4-0.3,0.5-0.6c0.1-0.2,0.1-0.5,0.1-0.7c0-0.2-0.2-0.5-0.4-0.8c-0.1-0.1-0.1-0.2-0.2-0.2v0.9c0.1,0.2,0.1,0.3,0.1,0.5
		c0,0.1,0,0.2-0.1,0.3V68.6L62.6,68.6z M62.6,63.8v-0.6c0,0,0.1-0.1,0.1-0.1l0.2,0.4c-0.1,0.1-0.2,0.1-0.2,0.2
		C62.7,63.7,62.7,63.8,62.6,63.8z M62.6,63.2v0.6c0,0.1-0.1,0.1-0.1,0.2c0,0.1,0,0.1,0.1,0.2v1.1l-0.2,0.1l-0.3-0.3l0.3-0.3
		l-0.2-0.2c-0.1-0.2-0.2-0.3-0.3-0.4c0-0.1-0.1-0.3,0-0.4c0-0.1,0.1-0.3,0.3-0.4C62.5,63.3,62.5,63.3,62.6,63.2L62.6,63.2z
		 M62.6,66.3v0.9c-0.1-0.1-0.1-0.3-0.2-0.4c-0.2-0.3-0.4-0.5-0.7-0.5l0,0v-0.5c0,0,0.1,0,0.1,0C62.1,65.9,62.4,66,62.6,66.3
		L62.6,66.3z M62.6,68v0.6l0,0c-0.3,0.2-0.6,0.3-0.9,0.3v-0.5c0.2,0.1,0.5,0,0.7-0.1C62.5,68.2,62.6,68.1,62.6,68z M61.7,65.8v0.5
		c-0.2-0.1-0.5,0-0.7,0.1c-0.2,0.1-0.3,0.3-0.3,0.6c0,0.3,0.1,0.5,0.3,0.8c0.2,0.3,0.5,0.5,0.7,0.5l0,0v0.5c0,0-0.1,0-0.1,0
		c-0.4-0.1-0.7-0.3-1-0.7c-0.3-0.4-0.4-0.9-0.3-1.3c0.1-0.3,0.3-0.6,0.6-0.8C61.1,65.9,61.4,65.8,61.7,65.8L61.7,65.8z M56.6,72.1
		v-0.5c0,0,0,0,0.1,0c0.1,0,0.1-0.1,0.2-0.1l0.2,0.4c-0.1,0.1-0.2,0.2-0.3,0.2C56.7,72,56.6,72,56.6,72.1L56.6,72.1z M56.6,69.5
		l2,1.6c0,0.1,0,0.1,0,0.1c0,0.2,0.1,0.3,0.1,0.4c0,0.1,0,0.2-0.1,0.2c0,0.1-0.1,0.1-0.2,0.2c-0.1,0-0.2,0.1-0.3,0.1l0.3,0.4
		c0.1,0,0.2-0.1,0.3-0.1c0.1-0.1,0.2-0.2,0.3-0.3C59,72,59,71.9,59,71.7c0-0.1,0-0.4-0.1-0.7l-0.5-3.2L58,68l0.3,1.8
		c0,0.2,0.1,0.5,0.2,0.7c-0.2-0.2-0.4-0.3-0.5-0.5l-1.4-1.2V69.5z M56.6,68.9v0.7L56,69.1L56.6,68.9L56.6,68.9L56.6,68.9z
		 M56.6,71.5c0,0-0.1,0-0.1,0c0,0-0.1,0-0.1-0.1c0,0-0.1-0.1-0.1-0.2l-0.7-1.6l0.5-0.2l-0.2-0.4l-0.5,0.2l-0.4-1l-0.1,0.2v0.7
		l0.1,0.2l-0.1,0V70l0.3-0.1l0.7,1.6c0.1,0.3,0.2,0.5,0.3,0.5c0.1,0.1,0.2,0.1,0.3,0.1c0.1,0,0.2,0,0.2,0V71.5L56.6,71.5z
		 M54.8,72.8v-0.7l0.2,0.6L54.8,72.8z M54.8,68.6v0.7l-0.2-0.4L54.8,68.6L54.8,68.6z M54.8,69.6V70l-0.1,0l-0.2-0.4L54.8,69.6
		L54.8,69.6z M54.8,72.2L53.9,70l-0.5,0.2v0l1.1,2.8l0.2-0.1V72.2L54.8,72.2z M53.4,72.8v-0.2C53.4,72.6,53.4,72.7,53.4,72.8
		L53.4,72.8z M53.4,69.6v-0.6l0,0l0.2,0.5L53.4,69.6z M53.4,68.9v0.6l-0.2,0.1L53,69.1L53.4,68.9L53.4,68.9z M53.4,70.2L53.4,70.2
		L53.4,70.2L53.4,70.2L53.4,70.2z M53.4,72.6v0.2c0,0,0,0.1,0,0.1c0,0.2-0.1,0.3-0.3,0.5c-0.1,0.1-0.3,0.2-0.6,0.3
		c-0.4,0.1-0.7,0.1-0.9,0.1c-0.2-0.1-0.4-0.3-0.6-0.6l0.4-0.2c0.1,0.2,0.2,0.3,0.4,0.4c0.2,0.1,0.3,0.1,0.6,0
		c0.2-0.1,0.4-0.2,0.4-0.3c0.1-0.1,0.1-0.3,0.1-0.4c0-0.1-0.1-0.2-0.2-0.2c-0.1,0-0.3,0-0.5,0c-0.4,0-0.7,0-0.8,0
		c-0.2,0-0.3-0.1-0.4-0.2c-0.1-0.1-0.2-0.2-0.2-0.3c0-0.1-0.1-0.3,0-0.4c0-0.1,0.1-0.2,0.1-0.3c0.1-0.1,0.1-0.2,0.3-0.2
		c0.1-0.1,0.2-0.1,0.4-0.2c0.2-0.1,0.4-0.1,0.6-0.1c0.2,0,0.3,0,0.5,0.1c0.1,0.1,0.2,0.2,0.3,0.4l-0.4,0.2c-0.1-0.1-0.2-0.2-0.3-0.3
		c-0.1,0-0.3,0-0.5,0c-0.2,0.1-0.4,0.2-0.4,0.3c-0.1,0.1-0.1,0.2-0.1,0.3c0,0.1,0.1,0.1,0.1,0.1c0.1,0,0.1,0.1,0.2,0.1
		c0.1,0,0.2,0,0.5,0c0.4,0,0.6,0,0.8,0c0.2,0,0.3,0.1,0.4,0.1c0.1,0.1,0.2,0.2,0.3,0.4C53.4,72.5,53.4,72.5,53.4,72.6L53.4,72.6z
		 M46.8,74.8v-0.4c0.1,0,0.1,0,0.2,0c0.2,0,0.3-0.1,0.5-0.2c0.1-0.1,0.2-0.3,0.3-0.5h0.5c0,0.3-0.2,0.6-0.4,0.8
		c-0.2,0.2-0.5,0.3-0.8,0.4C47,74.8,46.9,74.8,46.8,74.8L46.8,74.8z M46.8,73.4V73l0.8-0.1c-0.1-0.2-0.1-0.4-0.3-0.5
		c-0.2-0.2-0.4-0.2-0.6-0.2v-0.4c0.3,0,0.6,0.1,0.9,0.3c0.3,0.2,0.5,0.6,0.5,1.1c0,0,0,0.1,0,0.1L46.8,73.4L46.8,73.4z M49.3,74.4
		l-0.6-2.9l0.4-0.1l0.1,0.4c0.1-0.2,0.1-0.4,0.2-0.5c0.1-0.1,0.2-0.1,0.3-0.2c0.2,0,0.3,0,0.5,0.1l-0.1,0.5c-0.1,0-0.3-0.1-0.4,0
		c-0.1,0-0.2,0.1-0.3,0.2c-0.1,0.1-0.1,0.2-0.1,0.3c0,0.2,0,0.4,0,0.6l0.3,1.5L49.3,74.4z M46.8,71.7v0.4c0,0-0.1,0-0.1,0
		c-0.2,0-0.4,0.1-0.6,0.3C46,72.6,46,72.8,46,73.1l0.8-0.1v0.4L46,73.5c0.1,0.3,0.2,0.6,0.4,0.7c0.1,0.1,0.3,0.2,0.4,0.2v0.4
		c-0.3,0-0.6-0.1-0.8-0.3c-0.3-0.2-0.5-0.6-0.5-1.1c-0.1-0.5,0-0.9,0.2-1.2c0.2-0.3,0.5-0.5,0.9-0.5C46.7,71.7,46.8,71.7,46.8,71.7
		L46.8,71.7z M29.1,72.5V72c0.1,0,0.2-0.1,0.4-0.3l0.4,0.3C29.7,72.2,29.4,72.4,29.1,72.5C29.1,72.5,29.1,72.5,29.1,72.5L29.1,72.5z
		 M29.1,71.1v-0.5l0.7,0.3c0.1-0.2,0.1-0.4,0.1-0.6c-0.1-0.2-0.2-0.4-0.4-0.5c-0.1-0.1-0.2-0.1-0.3-0.1v-0.4c0.2,0,0.3,0.1,0.5,0.1
		c0.4,0.2,0.6,0.4,0.7,0.8c0.1,0.4,0.1,0.8-0.1,1.2c0,0,0,0.1-0.1,0.1L29.1,71.1L29.1,71.1z M31.4,69.8l0.2-0.6l0.5,0.2l-0.2,0.6
		L31.4,69.8L31.4,69.8z M30.3,73.1l0.5,0.2l0.9-2.8l-0.5-0.2L30.3,73.1L30.3,73.1z M36.7,70.6l0.5,0.1L36.7,73
		c-0.1,0.4-0.2,0.7-0.4,0.9c-0.1,0.2-0.4,0.4-0.6,0.5c-0.3,0.1-0.6,0.1-1,0c-0.4-0.1-0.7-0.2-0.9-0.4c-0.2-0.2-0.3-0.4-0.4-0.7
		c0-0.3,0-0.6,0.1-1l0.5-2.3l0.5,0.1l-0.5,2.3C34,72.7,34,73,34,73.2c0,0.2,0.1,0.3,0.2,0.5c0.1,0.1,0.3,0.2,0.5,0.3
		c0.4,0.1,0.7,0.1,0.9-0.1c0.2-0.1,0.4-0.5,0.5-1L36.7,70.6L36.7,70.6z M37.5,74.8l0.3-3l0.5,0l0,0.4c0.2-0.3,0.6-0.4,1-0.4
		c0.2,0,0.3,0.1,0.5,0.1c0.1,0.1,0.2,0.2,0.3,0.3c0.1,0.1,0.1,0.2,0.1,0.4c0,0.1,0,0.3,0,0.5L39.9,75l-0.5,0l0.2-1.8
		c0-0.2,0-0.4,0-0.5c0-0.1-0.1-0.2-0.2-0.3c-0.1-0.1-0.2-0.1-0.3-0.1c-0.2,0-0.4,0-0.6,0.2c-0.2,0.1-0.3,0.4-0.3,0.8L38,74.9
		L37.5,74.8L37.5,74.8z M41.1,71.6l0-0.6l0.5,0l0,0.6L41.1,71.6L41.1,71.6z M41,75.1l0.1-3l0.5,0l-0.1,3L41,75.1L41,75.1z
		 M43.4,75.1l-1.2-2.9l0.5,0l0.7,1.8c0.1,0.2,0.1,0.4,0.2,0.6c0-0.2,0.1-0.4,0.2-0.6l0.6-1.8l0.5,0l-1,3L43.4,75.1z M29.1,69.3v0.4
		c-0.1,0-0.2,0-0.3,0c-0.2,0.1-0.4,0.2-0.5,0.5l0.8,0.4v0.5l-1-0.5c-0.1,0.3-0.1,0.6-0.1,0.8c0.1,0.2,0.2,0.4,0.5,0.5
		c0.2,0.1,0.3,0.1,0.5,0.1c0,0,0.1,0,0.1,0v0.5c-0.2,0-0.5,0-0.8-0.1c-0.4-0.2-0.7-0.5-0.8-0.8c-0.1-0.4-0.1-0.7,0.1-1.2
		c0.2-0.5,0.5-0.8,0.8-0.9C28.7,69.4,28.9,69.3,29.1,69.3L29.1,69.3z M25.9,70.9v-0.5l0.1,0c0.2-0.1,0.5-0.3,0.7-0.6
		c0.2-0.3,0.3-0.6,0.2-0.9c0-0.2-0.2-0.4-0.3-0.5c-0.2-0.1-0.4-0.1-0.6,0V68c0.1,0,0.2-0.1,0.3-0.1c0.2,0,0.3,0.1,0.5,0.1
		c0.2,0.1,0.4,0.3,0.5,0.5c0.1,0.2,0.1,0.4,0.1,0.7c0,0.3-0.1,0.5-0.3,0.8c-0.2,0.3-0.3,0.5-0.6,0.6C26.3,70.8,26.1,70.9,25.9,70.9
		L25.9,70.9z M25.9,67.8v-0.1V67.8L25.9,67.8z M25.9,67.7v0.1l-0.1,0.3c0,0,0.1,0,0.1-0.1v0.4l-0.1,0c-0.2,0.1-0.5,0.3-0.7,0.6
		c-0.2,0.3-0.3,0.6-0.2,0.9c0,0.2,0.2,0.4,0.4,0.5c0.2,0.1,0.4,0.1,0.6,0.1v0.5c0,0-0.1,0-0.1,0c-0.2,0-0.5,0-0.7-0.2
		c-0.1-0.1-0.3-0.2-0.3-0.3c-0.1-0.1-0.1-0.3-0.2-0.4L24.1,71v-1l1.4-2.4L25.9,67.7L25.9,67.7z M24.1,68l0.7-1l-0.4-0.3l-0.2,0.3V68
		L24.1,68z M24.6,66.3l0.3-0.5l0.4,0.3l-0.3,0.5L24.6,66.3z M24.1,67.1V68l-1,1.5L23,69.4v-0.7L24.1,67.1L24.1,67.1z M24.1,70v1
		l-0.2,0.4l-0.4-0.3L24.1,70L24.1,70z M23,67v-1.3c0.1,0.1,0.1,0.1,0.2,0.2c0.1,0.1,0.1,0.3,0.1,0.4c0,0.1,0,0.2-0.1,0.4
		C23.2,66.8,23.1,66.9,23,67z M23,65.8V67l-0.1,0.1l-0.4,0.5c-0.3,0.4-0.5,0.6-0.5,0.7c-0.1,0.1-0.1,0.2-0.1,0.4l-0.4-0.3
		c0-0.1,0.1-0.2,0.1-0.4c-0.1,0-0.2,0-0.3,0v-0.3l0,0c0.2,0,0.3,0,0.5-0.1c0.1-0.1,0.2-0.2,0.4-0.3l0.1-0.1
		c-0.2-0.1-0.4-0.2-0.8-0.4c-0.1-0.1-0.2-0.1-0.2-0.1v-0.5l0,0c0.1,0,0.2,0.1,0.4,0.2c0.4,0.2,0.6,0.4,0.8,0.4
		c0-0.1,0.1-0.1,0.1-0.1c0.1-0.2,0.2-0.3,0.2-0.4c0-0.2-0.1-0.3-0.3-0.5c-0.2-0.1-0.4-0.2-0.5-0.2c-0.1,0-0.3,0.1-0.5,0.2l-0.2-0.2
		v-0.3c0.1-0.1,0.2-0.1,0.3-0.1c0.2,0,0.3,0,0.5,0c0.2,0.1,0.4,0.2,0.6,0.3C22.8,65.6,22.9,65.7,23,65.8L23,65.8z M23,68.8v0.7
		l-0.3-0.2L23,68.8L23,68.8z M21.3,63.6v-0.7l1.3,1.2l-0.3,0.4L21.3,63.6z M21.3,62.9v0.7l-0.1-0.1l-2.5,2.6l0,0v-0.8l2.1-2.2
		l-1-0.9l0.3-0.3L21.3,62.9L21.3,62.9z M21.3,65.3c-0.1,0-0.1,0.1-0.2,0.1l0.2,0.2V65.3L21.3,65.3z M21.3,66.2
		c-0.1,0-0.2-0.1-0.4-0.1c-0.1,0-0.3,0-0.4,0.1c-0.1,0.1-0.2,0.1-0.3,0.3C20,66.6,20,66.8,20,67.1c0,0.2,0.2,0.5,0.4,0.7
		c0.2,0.1,0.3,0.2,0.5,0.3c0.1,0,0.2,0,0.3,0.1v-0.3c-0.2,0-0.3-0.1-0.5-0.2c-0.2-0.1-0.2-0.2-0.3-0.4c0-0.1,0-0.3,0.1-0.4
		c0.1-0.1,0.1-0.1,0.2-0.1c0.1,0,0.2,0,0.3,0c0,0,0.1,0,0.2,0.1V66.2L21.3,66.2z M18.7,60.9v-0.7l0,0l0.3,0.4L18.7,60.9z M18.7,60.3
		v0.7l-2.3,2v-0.7L18.7,60.3L18.7,60.3z M18.7,65.4v0.8l-0.4-0.4L18.7,65.4L18.7,65.4z M16.3,61.1l0.2-0.1c0.2-0.1,0.3-0.2,0.4-0.3
		c0.1-0.1,0.2-0.2,0.2-0.3c0-0.1,0-0.3,0-0.4c0-0.2-0.1-0.3-0.3-0.6c-0.1-0.2-0.3-0.3-0.4-0.4v0.6l0,0c0.1,0.2,0.2,0.4,0.2,0.6
		c0,0.1-0.1,0.2-0.2,0.3V61.1z M16.3,58.9v0.6c-0.1-0.2-0.3-0.3-0.4-0.3c-0.1,0-0.1,0-0.2,0v-0.5h0C15.9,58.7,16.1,58.8,16.3,58.9
		C16.3,58.9,16.3,58.9,16.3,58.9L16.3,58.9z M16.3,60.4v0.6l-0.4,0.3l-0.2,0.2v-0.6l0.1-0.1c0,0-0.1,0-0.1-0.1v-0.5
		c0.2,0.2,0.3,0.3,0.4,0.4C16.2,60.5,16.2,60.5,16.3,60.4C16.3,60.5,16.3,60.4,16.3,60.4L16.3,60.4z M16.3,62.3V63l-0.4,0.3
		l-0.2-0.2v-0.2L16.3,62.3z M15.7,58.7v0.5c-0.1,0-0.2,0-0.3,0.1l-0.2-0.4C15.4,58.7,15.5,58.7,15.7,58.7L15.7,58.7z M15.7,60.2v0.5
		c-0.1-0.1-0.3-0.3-0.5-0.5c-0.1-0.2-0.3-0.3-0.3-0.3c-0.1,0-0.2-0.1-0.3-0.1c-0.1,0-0.1,0-0.2,0.1v-0.6l0,0c0.1,0,0.3,0,0.4,0
		c0.1,0,0.2,0.1,0.3,0.2c0.1,0.1,0.2,0.2,0.3,0.3C15.6,60,15.6,60.1,15.7,60.2L15.7,60.2z M15.7,60.9v0.6c-0.3,0.2-0.4,0.3-0.5,0.4
		c-0.1,0.1-0.2,0.2-0.2,0.3l-0.3-0.4c0.1-0.1,0.1-0.2,0.2-0.3c-0.2-0.1-0.4-0.1-0.5-0.2v-0.5c0.1,0.1,0.2,0.2,0.3,0.3
		c0.2,0.1,0.3,0.1,0.5,0.1C15.3,61.1,15.5,61,15.7,60.9L15.7,60.9L15.7,60.9z M15.7,62.8v0.2l-0.1-0.1L15.7,62.8L15.7,62.8z
		 M14.4,58.3v-0.6c0,0,0.1-0.1,0.1-0.1c0.1-0.1,0.1-0.2,0.1-0.3c0-0.1,0-0.2-0.1-0.4c0-0.1-0.1-0.1-0.1-0.2v-0.5
		c0.2,0.1,0.4,0.3,0.6,0.5c0.1,0.2,0.1,0.3,0.2,0.5c0,0.2,0,0.3-0.1,0.4c-0.1,0.1-0.1,0.2-0.2,0.3C14.8,58.1,14.6,58.2,14.4,58.3
		L14.4,58.3L14.4,58.3z M14.4,56L14.4,56L14.4,56L14.4,56z M14.4,56L14.4,56l-0.4,0.2c0.1,0,0.2,0,0.4,0.1v0.5
		c-0.1-0.1-0.2-0.2-0.3-0.2c-0.2-0.1-0.5,0-0.8,0.2l-0.3,0.2v-0.6l1.2-0.7L14.4,56L14.4,56z M14.4,57.7v0.6l-1.5,0.8v-0.6l1.2-0.7
		C14.3,57.8,14.3,57.7,14.4,57.7L14.4,57.7z M14.4,59.4v0.6c0,0,0,0,0,0c-0.1,0.1-0.2,0.2-0.2,0.3c0,0.1,0,0.3,0.2,0.4
		c0,0,0,0.1,0.1,0.1v0.5c0,0,0,0-0.1,0c-0.2-0.1-0.3-0.2-0.4-0.4c-0.2-0.3-0.3-0.5-0.3-0.8c0-0.2,0.1-0.4,0.3-0.6
		C14.1,59.4,14.3,59.4,14.4,59.4L14.4,59.4z M12.9,55.4v-0.8c0,0,0,0,0-0.1c0.1-0.2,0.1-0.5,0-0.7c0,0,0,0,0-0.1v-0.7
		c0.2,0.1,0.3,0.3,0.4,0.5c0.2,0.4,0.2,0.7,0.1,1.1C13.3,55.1,13.2,55.3,12.9,55.4L12.9,55.4z M12.9,51.5v-0.2l0.5-0.2l0.2,0.5
		L13,51.8L12.9,51.5L12.9,51.5z M12.9,50.2L12.9,50.2L12.9,50.2L12.9,50.2z M11,42.6l0.7-0.1l0,0.6L11,43.7V42.6L11,42.6z M11,45.3
		l0.9-0.1l0,0.5L11,45.8V45.3L11,45.3z M12.9,50.1L12.9,50.1L12,50.4l0.1,0.5L11.8,51l-0.1-0.5L11,50.7v-0.5l0.5-0.1l-0.1-0.4
		l0.4-0.1l0.1,0.4l0.7-0.2L12.9,50.1L12.9,50.1z M12.9,51.3v0.2V51.3L12.9,51.3L12.9,51.3z M12.9,53.2v0.7c-0.1-0.2-0.3-0.3-0.5-0.4
		c-0.2-0.1-0.5,0-0.9,0.1c-0.2,0.1-0.4,0.2-0.5,0.4v-0.7c0.1-0.1,0.2-0.1,0.3-0.2c0.5-0.2,0.9-0.3,1.3-0.1
		C12.8,53.1,12.9,53.1,12.9,53.2L12.9,53.2z M12.9,54.7v0.8c-0.1,0.1-0.2,0.2-0.4,0.2c-0.3,0.2-0.6,0.2-0.9,0.2
		c-0.2,0-0.5-0.1-0.6-0.2v-0.6c0.1,0.1,0.2,0.2,0.4,0.3c0.2,0.1,0.5,0,0.9-0.1C12.6,55.1,12.8,54.9,12.9,54.7L12.9,54.7z M12.9,56.3
		v0.6l-1.1,0.6l-0.3-0.4L12.9,56.3L12.9,56.3z M12.9,58.5v0.6l-0.1,0.1l-0.3-0.4L12.9,58.5L12.9,58.5z M11,52.5v-0.5l1.3-0.5
		l0.2,0.5L11,52.5L11,52.5z M11,48.9V47c0,0,0,0.1,0.1,0.1c0.1,0.2,0.2,0.4,0.3,0.6c0.1,0.2,0.1,0.5,0.1,0.6c0,0.2-0.1,0.3-0.1,0.4
		C11.2,48.8,11.1,48.9,11,48.9z M9.3,42.7l1.7-0.1v1.1L9.3,45v-0.7l1.6-1.3l-1.6,0.1V42.7L9.3,42.7z M9.3,45.4l1.7-0.1v0.5l-1.7,0.1
		V45.4L9.3,45.4z M11,47v1.9c0,0,0,0-0.1,0c-0.1,0-0.2,0.1-0.4,0.1l-0.7,0.2c-0.2,0.1-0.4,0.1-0.6,0.1v-0.6c0.1,0,0.3,0,0.5,0l0.2,0
		c-0.1-0.2-0.2-0.4-0.4-0.8c-0.1-0.2-0.1-0.3-0.2-0.4c0,0-0.1-0.1-0.1-0.1v-0.6c0.1,0,0.2,0.1,0.3,0.2c0.1,0.1,0.2,0.2,0.2,0.3
		c0,0.1,0.1,0.2,0.2,0.4c0.1,0.4,0.3,0.7,0.4,0.8c0.1,0,0.1,0,0.1,0c0.2,0,0.3-0.1,0.4-0.2c0.1-0.2,0.1-0.4,0-0.6
		c-0.1-0.2-0.1-0.4-0.2-0.5c-0.1-0.1-0.3-0.1-0.5-0.1l0-0.5c0.2,0,0.4,0,0.5,0.1C10.8,46.8,10.9,46.9,11,47L11,47z M11,50.2v0.5
		L9.9,51c-0.1,0-0.2,0.1-0.3,0.1c0,0-0.1,0.1-0.1,0.1c0,0,0,0.1,0,0.2c0,0.1,0,0.1,0.1,0.2l-0.4,0.2v-1.1c0.1-0.1,0.3-0.1,0.6-0.2
		L11,50.2L11,50.2z M11,51.9v0.5l-1.3,0.5l-0.2-0.5L11,51.9L11,51.9z M11,53.3V54c-0.1,0.1-0.1,0.1-0.1,0.2c-0.1,0.2-0.1,0.5,0,0.7
		c0,0.1,0.1,0.1,0.1,0.2v0.6l0,0c-0.2-0.1-0.4-0.3-0.5-0.6c-0.2-0.4-0.2-0.7-0.1-1.1C10.6,53.7,10.7,53.5,11,53.3z M7.6,42.8
		l1.6-0.1v0.5l-1.6,0.1L7.6,42.8L7.6,42.8z M9.3,45l-0.6,0.4l0.6,0v0.5L7.9,46l0-0.6l1.5-1.1V45L9.3,45z M9.3,46.9v0.6
		c0,0-0.1,0-0.1,0c-0.1,0-0.2,0-0.2,0c-0.1,0-0.2,0.1-0.3,0.2c-0.1,0.1-0.1,0.3,0,0.5c0,0.2,0.1,0.4,0.2,0.5
		c0.1,0.1,0.3,0.2,0.4,0.2l0,0v0.6c-0.1,0-0.2,0.1-0.3,0.1c-0.1,0-0.2,0.1-0.3,0.2l-0.1-0.5C8.6,49.1,8.7,49,8.9,49
		c-0.2-0.1-0.3-0.3-0.5-0.5c-0.1-0.2-0.2-0.3-0.2-0.5c-0.1-0.3-0.1-0.6,0.1-0.8c0.1-0.2,0.3-0.3,0.5-0.4C9,46.8,9.1,46.8,9.3,46.9
		C9.2,46.8,9.3,46.8,9.3,46.9L9.3,46.9z M9.3,50.7v1.1l0,0c-0.1-0.1-0.1-0.2-0.1-0.4c0-0.2-0.1-0.3,0-0.4
		C9.1,50.9,9.2,50.8,9.3,50.7L9.3,50.7z"/>
	<path class="st1" d="M72.5,26.8v-1.3l0.1,0.1l0.2-0.1l-0.3-0.5v-0.5l0.2-0.1l0.5,0.9l0.2-0.1l-0.5-0.9l0.4-0.2l0.5,0.9l0.2-0.1
		c0,0,0,0,0-0.1l-0.5-0.8l0.4-0.2l0.7,1.2c0,0.1,0,0.1,0,0.2L72.8,26l0,0l0,0.5C72.8,26.7,72.6,26.7,72.5,26.8L72.5,26.8z M72.5,24
		L72.5,24l0.2-0.4c0,0,0,0,0,0l0.5,0c0-0.1,0-0.3,0-0.4c0.1,0,0.2,0.1,0.4,0.1l0.1-0.5c-0.2-0.1-0.3-0.1-0.5-0.2c0-0.3,0-0.5,0-0.7
		l-0.5,0c0,0.1,0,0.2,0,0.4c-0.1,0-0.1-0.1-0.2-0.1v0.6l0.2,0.1c0,0.2,0,0.3,0,0.5c-0.1,0-0.2-0.1-0.2-0.1V24L72.5,24z M72.5,21.9
		v-0.8c0.1,0.1,0.2,0.3,0.4,0.4L72.5,21.9L72.5,21.9z M72.5,21.1v0.8c-0.2-0.3-0.5-0.6-0.7-0.9c0,0,0,0-0.1,0l-0.2,0.1l0.5,0.8
		l-0.4,0.2l-0.5-0.8l-0.2,0.1l0.5,0.8L71,22.6l-0.5-0.8l-0.2,0.1l1.4,2.3c0-0.2,0-0.4,0.1-0.6c-0.4-0.3-0.6-0.5-0.7-0.6l0.3-0.4
		c0.2,0.2,0.3,0.3,0.5,0.4c0-0.2,0-0.3,0-0.3l0.4,0c-0.1-0.1-0.2-0.2-0.3-0.2l0.2-0.4c0.1,0.1,0.2,0.2,0.3,0.2v0.6l-0.2-0.1
		c0,0.1,0,0.3,0,0.6c0.1,0,0.2,0.1,0.2,0.1V24c-0.1,0-0.2-0.1-0.3-0.1c0,0.1,0,0.3,0,0.4l-0.4-0.1l0.7,1.2v1.3
		c-0.3,0.1-0.5,0.2-0.9,0.3l-0.1-0.5c0.4-0.1,0.7-0.2,0.8-0.3c0,0,0.1-0.1,0-0.1L70,22.4v-1l0,0l1.8-1.1c0.1,0,0.1,0,0.2,0.1
		C72.2,20.7,72.3,20.9,72.5,21.1L72.5,21.1z M72.5,24.4l-0.2,0.1l0.2,0.4V24.4L72.5,24.4z M70,26.7l0.5,0.9l0.5-0.3l-1-1.6V26.7
		L70,26.7z M70,25.2l1.1,0.8l0.3-0.7L70,23v1l0.7,1.1L70,24.6V25.2z M70,21.4v1l-0.3-0.6c0,0,0,0-0.1,0l-0.7,0.4l-0.3-0.5l1.2-0.7
		c0.1,0,0.1,0,0.1,0L70,21.4L70,21.4z M70,23v1l-0.6-1l0.5-0.3L70,23L70,23z M70,24.6l-0.2-0.1l0,0l-0.2-0.3c0,0.2-0.1,0.3-0.2,0.5
		l-1.4-2.3l-0.5,0.3l1.5,2.5c-0.2,0.2-0.3,0.3-0.5,0.3c-0.1,0-0.3,0-0.4-0.2c-0.2-0.2-0.3-0.6-0.3-1l-0.5,0.2c0,0.4,0.1,0.8,0.3,1
		c0.1,0.3,0.4,0.4,0.6,0.5c0.3,0.1,0.6,0,1-0.3c0,0,0.1-0.1,0.1-0.1l0.6,0.9v-1.1l-0.2-0.3c0,0,0-0.1,0.1-0.1l0.1,0.1V24.6L70,24.6z
		 M56.9,14.3v-0.7c0.4,0.4,0.9,0.9,1.5,1.3l-0.5,0.4C57.5,14.9,57.2,14.6,56.9,14.3L56.9,14.3z M56.9,13.1l1.6,0.7l0.2-0.4l-1.8-0.8
		V13.1L56.9,13.1z M56.9,12.1v-0.5l1.8,0.8l-0.2,0.4L56.9,12.1L56.9,12.1z M56.9,11.2l2.2,0.9l0.2-0.4L57.8,11
		c0.2-0.2,0.3-0.3,0.4-0.5l1.4,0.6l0.2-0.5l-1-0.4c0.3-0.2,0.5-0.4,0.8-0.5l-0.3-0.4c-0.2,0.2-0.5,0.4-0.9,0.6l0.1,0.2L58,9.9l0.4-1
		l-0.5-0.2l-0.4,1l-0.5-0.2V10l0.8,0.4c-0.1,0.1-0.3,0.3-0.5,0.5l-0.4-0.2V11.2L56.9,11.2z M56.9,9.3V8.3l0.4,0.2L56.9,9.3L56.9,9.3
		z M64.5,16.6c-0.4,1-0.5,2.3-0.2,3.8c0,0.1,0.1,0.3,0.1,0.5l0.7,0c-0.5-1.6-0.5-3-0.1-4.1c0.1-0.2,0.2-0.4,0.4-0.6l2,1.7l0.4-0.5
		l-2-1.7c0.1-0.1,0.2-0.2,0.2-0.3l0.6-0.8l-0.5-0.4l-0.6,0.8c-0.1,0.1-0.2,0.2-0.2,0.2l-2-1.7l-0.4,0.5l2,1.7
		c-1.4,1.1-2.9,1.5-4.6,1l0,0.7c1.5,0.3,2.8,0.1,3.9-0.5C64.3,16.7,64.4,16.7,64.5,16.6z M56.9,8.3v1.1l0,0.1l0,0V10l-0.8-0.4
		c0,0.2,0,0.4,0,0.7l0.8,0.3v0.5l-0.1,0l-0.2,0.4l0.3,0.1v0.5l-0.5-0.2l-0.2,0.4l0.6,0.3v0.5l-0.5-0.2c0.1,0.2,0.3,0.5,0.5,0.7v0.7
		c-0.4-0.4-0.7-0.8-1-1.2l-0.6,1.4l-0.5-0.2l0.6-1.4c-1.1,0.2-2.1,0.3-2.9,0.1l0-0.6c0.9,0.2,1.8,0.2,2.7,0l-2.1-0.9l0.2-0.4l2.4,1
		l0.2-0.4l-2.1-0.9l0.2-0.4l2.1,0.9l0.2-0.4l-2.3-1l0.2-0.4l1.4,0.6c0-0.3,0-0.5,0-0.7l-1.3-0.6l0.2-0.5l1.1,0.5
		c0-0.3-0.1-0.6-0.1-0.8l0.5-0.1C55.9,8.2,56,8.4,56,8.8l-0.5,0.1l0.8,0.4l0.4-1L56.9,8.3L56.9,8.3z M48.9,12.2v-0.6
		c0.1,0,0.1,0,0.1,0c0.1-0.1,0.2-0.1,0.2-0.2l0.2-2l-0.6-0.1V8.7l0.6,0.1l0.1-0.6c0,0,0,0,0-0.1l-0.7-0.1V7.5l1.2,0.1
		c0.1,0,0.1,0.1,0.1,0.2l-0.5,3.8c0,0.2-0.1,0.4-0.3,0.5C49.3,12.2,49.1,12.2,48.9,12.2L48.9,12.2z M48.9,7.1V6.3l1.7,0.2L50.5,7
		L49,6.9C49,6.9,48.9,7,48.9,7.1z M48.9,6.3v0.8l0,0.1c-0.1,0.1-0.1,0.2-0.1,0.3l0.2,0v0.6L48.2,8l-0.1,0.5c0,0.1,0,0.1,0.1,0.2
		l0.6,0.1v0.5l-1.1-0.1c-0.2,0-0.2-0.1-0.2-0.3l0.1-0.9L47,7.8V7.3l1.1,0.1c0.2-0.4,0.3-0.6,0.3-0.6L47,6.6V6.1l0.2,0l0.1-0.5
		l0.6,0.1l-0.1,0.5L48.9,6.3L48.9,6.3z M48.9,11.6v0.6c-0.2,0-0.4-0.1-0.6-0.2l0.1-0.6L47,11.3v-0.5l1,0.1c0,0,0,0,0,0l0.1-0.7
		c0,0,0,0,0,0L47,9.9V9.4l1.6,0.2c0.1,0,0.1,0.1,0.1,0.2l-0.2,1.6c0,0.1-0.1,0.1-0.1,0.1C48.6,11.5,48.8,11.6,48.9,11.6z M47,6.1
		v0.6l-0.5-0.1c0.1,0.4,0.2,0.6,0.2,0.7l0.3,0v0.6l-0.1,0c0,0.1-0.1,0.2-0.1,0.3c-0.2,0.5-0.8,0.8-1.6,0.9L45,8.5
		c0.3-0.1,0.6-0.1,0.7-0.2c0.3-0.1,0.5-0.3,0.6-0.6l-1.3-0.2c0,0,0,0-0.1,0l-0.5,4l-0.6-0.1l0.5-4.4C44.5,7,44.5,7,44.6,7l1.4,0.2
		c-0.1-0.4-0.2-0.6-0.2-0.7l-1.5-0.2l0.1-0.5L47,6.1L47,6.1z M47,9.4l-1.4-0.2c-0.1,0-0.2,0-0.2,0.1l-0.2,1.6c0,0.1,0,0.2,0.1,0.2
		l1.6,0.2v-0.5l-1.1-0.1c0,0,0,0,0,0l0.1-0.7c0,0,0,0,0,0l1,0.1V9.4L47,9.4z M30.3,14v-0.5l2-0.8l0.2,0.5L30.3,14L30.3,14z
		 M30.3,13.2l1.2-0.5l-0.2-0.4l-0.1,0l0.1-0.4c-0.2-0.1-0.6-0.1-1.1-0.3v0.8l0.5-0.2c0.2,0,0.3,0.1,0.5,0.1l-0.9,0.4V13.2L30.3,13.2
		z M30.3,11.6v-0.5l0.4-0.2l0.2,0.4L30.3,11.6L30.3,11.6z M30.3,10.9l0.6-0.2c0,0,0.1,0,0.1,0c0,0.1,0.1,0.4,0.1,0.7l0.5-0.1
		c-0.1-0.5-0.2-0.9-0.3-1.2l-0.5,0l-0.6,0.2V10.9L30.3,10.9z M30.3,10.1V9.7l0.1,0.3C30.4,10,30.4,10.1,30.3,10.1L30.3,10.1
		L30.3,10.1z M36.6,9.5c-0.5,0.5-1.1,1-1.8,1.4l0.4,0.5c0.5-0.4,1-0.7,1.5-1.1l0.2,1.7l0.6-0.1l-0.7-6.2l-0.6,0.1l0.1,1.3l-1.9,0.2
		l0.1,0.6l1.9-0.2L36.6,9.5L36.6,9.5z M38.4,7.6l-0.2-2.1l-0.6,0.1l0.6,5.4c0,0.4,0.2,0.6,0.4,0.8c0.1,0.1,0.3,0.1,0.4,0.1l1.2-0.1
		c0.2,0,0.3,0,0.4-0.1c0.1,0,0.2-0.1,0.3-0.2c0.1-0.1,0.1-0.2,0.1-0.4c0-0.2,0-0.7,0-1.3l-0.6-0.1c0,0.7,0,1.1-0.1,1.3
		c-0.1,0.1-0.2,0.2-0.4,0.2l-0.7,0.1c-0.2,0-0.3,0-0.3-0.1c0,0-0.1-0.1-0.1-0.3l-0.3-2.4c0.8-0.7,1.5-1.3,1.9-1.9L40,6.1
		C39.6,6.5,39.1,7,38.4,7.6z M30.3,9.7v0.4l-0.6,0.2V9.9l0.1,0c0,0,0,0,0,0l-0.1-0.2l0,0V9.2l0.3-0.1c0,0,0.1,0,0.1,0L30.3,9.7
		L30.3,9.7z M30.3,10.3l-0.6,0.2v0.5l0.6-0.2V10.3L30.3,10.3z M30.3,11.1v0.5l0,0l0,0v0.8l-0.6,0.3v-0.5L30,12
		c-0.2,0-0.3-0.1-0.4-0.1v-0.1l0-0.1l0,0v-0.5L30.3,11.1L30.3,11.1z M30.3,12.7v0.5l-0.6,0.2v-0.5L30.3,12.7L30.3,12.7z M30.3,13.4
		V14l-0.6,0.2v-0.6l0,0L30.3,13.4L30.3,13.4z M29.7,9V8.6l0.2-0.1L30,8.9L29.7,9L29.7,9z M29.7,8.3V7.8l0.2-0.1l0.2,0.4L29.7,8.3z
		 M29.7,7.8v0.5l-0.5,0.2V8L29.7,7.8L29.7,7.8z M29.7,8.6V9l-0.5,0.2V8.8L29.7,8.6L29.7,8.6z M29.7,9.2v0.4c0,0,0,0,0,0l-0.5,0.2
		V9.5L29.7,9.2L29.7,9.2z M29.7,9.9v0.4l-0.5,0.2v-0.4L29.7,9.9L29.7,9.9z M29.7,10.6v0.5l-0.5,0.2v-0.5L29.7,10.6L29.7,10.6z
		 M29.7,11.4v0.5L29.2,12v-0.5L29.7,11.4L29.7,11.4z M29.7,11.9L29.7,11.9L29.7,11.9L29.7,11.9L29.7,11.9z M29.7,12.2v0.5l-0.4,0.2
		l0.1,0.2l0.3-0.1v0.5l-0.1,0l0.1,0.2v0.6l-0.5,0.2v-0.5l0,0l0-0.1v-1.4L29.7,12.2z M29.2,8v0.5l-1.3,0.5V8.6L29.2,8L29.2,8z
		 M29.2,8.8l-1.3,0.5v0.5l1.3-0.5V8.8L29.2,8.8z M29.2,9.5v0.4l-1.3,0.5V10L29.2,9.5L29.2,9.5z M29.2,10.2l-1.3,0.5v0.4l1.3-0.5
		V10.2L29.2,10.2z M29.2,10.8v0.5l-1.3,0.5v-0.5L29.2,10.8L29.2,10.8z M29.2,11.6l-1.3,0.5v0.5l0,0l0,0v0.9l1-0.4l0.1,0.2l-1,0.4
		v0.5l1.2-0.5l0.1,0.2v-1.4l-0.9,0.4c0.1-0.2,0.1-0.4,0.2-0.5l0.7-0.3V11.6L29.2,11.6z M29.2,13.9v0.5L27.9,15v-0.5L29.2,13.9z
		 M27.9,8.6v0.5l-0.1,0.1l0.1,0.2l0.1,0v0.5l-2.4,1l-0.2-0.4l2-0.9l-0.1-0.2l-2.3,1l-0.2-0.4l2.3-1L27,8.6l0.5-0.2l0.1,0.3L27.9,8.6
		L27.9,8.6z M27.9,10l-2.2,0.9c0,0,0,0,0,0.1l0.4,0.8c0,0,0,0.1,0.1,0l1.8-0.7v-0.4l-1.5,0.6c0,0,0,0,0,0l-0.1-0.2c0,0,0,0,0,0
		l1.6-0.7V10L27.9,10z M27.9,11.4v0.5l-1.6,0.7c0,0,0,0,0,0.1l0.3,0.8l-0.5,0.2l-0.5-1.1c0-0.1,0-0.1,0-0.1L27.9,11.4L27.9,11.4z
		 M27.9,12.1l-1.3,0.6l0.2,0.4l1.1-0.5V12.1L27.9,12.1z M27.9,12.6c-0.1,0.2-0.1,0.4-0.2,0.6l-1.2,0.5c0.1,0.1,0.2,0.3,0.3,0.4
		l1.1-0.5V12.6L27.9,12.6z M27.9,13.7v0.5l-0.8,0.3l-0.2-0.4L27.9,13.7L27.9,13.7z M27.9,14.4L26.6,15l0.2,0.5l1.1-0.5V14.4
		L27.9,14.4z M20.5,20.4v-0.8l1.9-1.6c-0.5-1.1-1.1-2.3-1.7-3.4l0.5-0.3c0.7,1.2,1.2,2.3,1.7,3.2l1.4-1.2l0.4,0.4L20.5,20.4
		L20.5,20.4z M20.5,19.2L20.5,19.2l0.4-0.5c-0.1-0.1-0.3-0.2-0.4-0.3V19.2L20.5,19.2z M20.5,14.3v-0.8l0.6-0.5l0.4,0.4L20.5,14.3z
		 M20.5,13.5v0.8l-1.1,0.9v-0.8L20.5,13.5L20.5,13.5z M20.5,18.4v0.8c-0.4-0.3-0.7-0.6-1.1-0.9v-0.7C19.7,17.8,20.1,18.1,20.5,18.4
		L20.5,18.4z M20.5,19.7v0.8l-0.6,0.5l-0.4-0.4L20.5,19.7z M14.8,24.3l-0.3-0.2v0.8l0.3-0.5C14.8,24.4,14.8,24.3,14.8,24.3
		L14.8,24.3z M19.4,14.5v0.8l-2.4,2l-0.4-0.4l2-1.7l-0.5-0.6l0.5-0.4l0.5,0.6L19.4,14.5L19.4,14.5z M19.4,17.5
		c-0.4-0.3-0.7-0.5-1.1-0.8l-0.4,0.5c0.5,0.3,1,0.7,1.5,1V17.5L19.4,17.5z M14.5,27.8v-0.7l0.4,0.2c0,0,0.1,0,0.1,0l2.4-4
		c0,0,0-0.1,0-0.1l-2.8-1.7v-0.7L18,23c0.1,0.1,0.1,0.1,0.1,0.2L15.2,28c0,0.1-0.1,0.1-0.2,0L14.5,27.8L14.5,27.8z M14.5,26.7v-0.9
		c0.2-0.5,0.4-1,0.5-1.4l0.5,0.1c-0.1,0.6-0.4,1.3-0.8,2.2L14.5,26.7L14.5,26.7z M14.5,23.7v-0.5c0.1,0,0.2,0.1,0.4,0.1
		c-0.1-0.2-0.2-0.3-0.4-0.5V22c0.4,0.5,0.8,0.9,1,1.4c0,0,0,0,0,0.1c0.2,0,0.4,0.1,0.6,0.1c0.2,0,0.3,0,0.3,0c0,0,0-0.1-0.1-0.1
		c-0.2-0.1-0.4-0.2-0.6-0.3l0.4-0.4c0.5,0.3,0.8,0.6,0.9,0.8c0.1,0.1,0.1,0.2,0.1,0.2c0,0.1,0,0.1-0.1,0.2c-0.1,0.1-0.2,0.2-0.4,0.2
		c-0.2,0-0.5,0-0.7-0.1c0.2,0.4,0.3,0.8,0.4,1.1l-0.5,0.2c-0.1-0.6-0.3-1.1-0.5-1.4C15,23.8,14.7,23.7,14.5,23.7z M14.5,24.1l-1-0.6
		v0.6l0.7,0.4c0,0,0,0,0,0l-0.6,0.9c0,0,0,0,0,0l-0.1-0.1v0.6l0.2,0.1c0,0,0.1,0,0.1,0l0.7-1.2V24.1L14.5,24.1z M14.5,20.9v0.7
		l-1-0.6v-0.7L14.5,20.9L14.5,20.9z M14.5,22v0.8c-0.2-0.2-0.4-0.4-0.6-0.6l0.4-0.4C14.4,21.8,14.4,21.9,14.5,22L14.5,22z
		 M14.5,23.1v0.5c-0.3-0.1-0.7-0.2-1-0.4v-0.6C13.8,22.9,14.2,23,14.5,23.1L14.5,23.1z M14.5,25.8v0.9l-0.3-0.1
		C14.3,26.3,14.4,26,14.5,25.8L14.5,25.8z M14.5,27.1l-1-0.6v0.7l1,0.6V27.1L14.5,27.1z M13.5,22.2l0.5-0.8l-0.5-0.3l0,0V22.2z
		 M13.5,23.5l-0.2-0.1c0,0-0.1,0-0.1,0l-0.5,0.8v1.3l0.8,0.5v-0.6l-0.7-0.4c0,0,0,0,0,0l0.6-1c0,0,0,0,0,0l0.1,0.1V23.5L13.5,23.5z
		 M13.5,20.3V21l-0.2-0.1c0,0-0.1,0-0.1,0l-0.3,0.5c0.1,0,0.3,0.1,0.5,0.1l0.2-0.3v1l-0.2,0.4c0.1,0,0.2,0.1,0.2,0.1v0.6
		c-0.2-0.1-0.3-0.1-0.5-0.2l-0.3,0.5v-1.2l0.1,0L13,22c-0.1,0-0.2-0.1-0.3-0.1v-1.3l0.3-0.5c0.1-0.1,0.1-0.1,0.2-0.1L13.5,20.3
		L13.5,20.3z M13.5,26.5v0.7l-0.8-0.5V26L13.5,26.5z M12.7,24.3l-0.6,0.9c0,0,0,0.1,0,0.1l0.5,0.3V24.3L12.7,24.3z M12.7,20.6v1.3
		c0,0-0.1,0-0.1,0l-0.2,0.3c0.1,0.1,0.2,0.1,0.3,0.2v1.2l-0.9,1.5l-0.5-0.3l1.2-2c-0.1-0.1-0.3-0.1-0.4-0.2l-1.3,2.1
		c0,0,0,0.1,0,0.1l1.9,1.1v0.7l-2.6-1.5c-0.1,0-0.1-0.1,0-0.2L12.7,20.6z"/>
	<path class="st0" d="M10.1,32.3c0.8,0,1.5,0.6,1.5,1.4c0,0.8-0.7,1.4-1.5,1.4c-0.8,0-1.5-0.6-1.5-1.4C8.6,32.9,9.3,32.3,10.1,32.3z
		"/>
	<path class="st0" d="M74.4,32.3c0.8,0,1.5,0.6,1.5,1.4c0,0.8-0.7,1.4-1.5,1.4c-0.8,0-1.5-0.6-1.5-1.4C73,32.9,73.6,32.3,74.4,32.3z
		"/>
	<path class="st0" d="M43.3,33.7v9.6l1.3-0.5l0-3.6v-3.4C44.6,35.7,44.6,34.2,43.3,33.7z"/>
	<path class="st0" d="M41.5,33.7l0,9.6l-1.3-0.7l0-3.5v-3.4C40.2,35.7,40.2,34.2,41.5,33.7z"/>
	<path class="st1" d="M41.4,51v-0.4c0.1,0,0.2,0,0.2-0.1c0.1-0.1,0.1-0.3,0.1-0.6c-0.1,0.1-0.2,0.2-0.4,0.2v-0.4l0,0
		c0.1,0,0.2,0,0.2-0.1c0.1-0.1,0.1-0.2,0.1-0.3c0-0.2,0-0.3-0.1-0.4c-0.1-0.1-0.1-0.1-0.2-0.1v-0.4c0.3,0,0.5,0.1,0.6,0.3
		c0.2,0.2,0.2,0.5,0.2,1c0,0.5-0.1,0.8-0.3,1C41.8,50.9,41.6,51,41.4,51L41.4,51z M44,51h-0.5v-1.8c-0.2,0.2-0.4,0.3-0.6,0.4v-0.4
		c0.1,0,0.3-0.1,0.4-0.2c0.1-0.1,0.2-0.3,0.3-0.4H44V51L44,51z M44.9,48.9v-0.4h1.7v0.4c-0.1,0.1-0.3,0.3-0.4,0.6
		c-0.1,0.2-0.2,0.5-0.3,0.8c-0.1,0.3-0.1,0.5-0.1,0.8h-0.5c0-0.3,0.1-0.7,0.2-1.1c0.1-0.4,0.3-0.7,0.5-1H44.9z M39.7,51h-0.5v-1.8
		c-0.2,0.2-0.4,0.3-0.6,0.4v-0.4c0.1,0,0.3-0.1,0.4-0.2c0.1-0.1,0.2-0.3,0.3-0.4h0.4V51L39.7,51z M41.4,48.4v0.4h0
		c-0.1,0-0.2,0-0.2,0.1C41.1,49,41,49.1,41,49.3c0,0.2,0,0.3,0.1,0.4c0.1,0.1,0.1,0.1,0.2,0.1v0.4c0,0-0.1,0-0.1,0
		c-0.2,0-0.4-0.1-0.5-0.2c-0.1-0.2-0.2-0.4-0.2-0.6c0-0.3,0.1-0.5,0.2-0.6C40.9,48.5,41.1,48.4,41.4,48.4L41.4,48.4L41.4,48.4z
		 M41.4,50.6V51l0,0c-0.2,0-0.4-0.1-0.5-0.2c-0.1-0.1-0.2-0.3-0.2-0.5l0.5-0.1c0,0.1,0,0.2,0.1,0.2C41.2,50.6,41.3,50.6,41.4,50.6
		L41.4,50.6z"/>
</g>
<g>
	<g>
		<path class="st1" d="M90.5,61.1v-11c0,0,0-0.1,0.1-0.1s0.1,0,0.1,0h1.5c0.1,0,0.2,0,0.2,0.1l5.4,7.9v-7.9c0-0.1,0-0.1,0.1-0.1h1.8
			c0.1,0,0.1,0,0.1,0.1v11c0,0.1,0,0.1-0.1,0.1h-1.8c-0.1,0-0.2,0-0.2-0.1l-5.1-7.5v7.5c0,0.1,0,0.1-0.1,0.1L90.5,61.1
			C90.5,61.2,90.5,61.2,90.5,61.1z"/>
		<path class="st1" d="M107.1,61.2c0-0.1-0.1-0.4-0.1-0.9c-0.2,0.4-0.5,0.6-0.9,0.8c-0.4,0.2-0.9,0.3-1.7,0.3
			c-0.6,0-1.1-0.1-1.5-0.3c-0.4-0.2-0.7-0.5-0.9-0.9s-0.3-0.8-0.3-1.2c0-0.6,0.2-1.1,0.5-1.4c0.3-0.4,0.7-0.6,1.2-0.8
			c0.5-0.2,1.1-0.3,1.8-0.3c0.6,0,1.1,0.1,1.6,0.2c0-0.5-0.1-0.8-0.3-1.2c-0.2-0.3-0.6-0.5-1.3-0.5c-0.4,0-0.8,0.1-1.3,0.3
			c-0.5,0.2-0.8,0.4-1.2,0.7c0,0.1-0.1,0-0.1,0l-0.6-1.4c0-0.1,0-0.1,0-0.1c0.4-0.3,1-0.6,1.6-0.8c0.6-0.2,1.2-0.3,1.8-0.3
			c1.1,0,1.9,0.3,2.4,0.8c0.6,0.5,0.8,1.3,0.8,2.3v2.6c0,0.3,0,0.7,0.1,1.1c0.1,0.4,0.1,0.7,0.2,1c0,0,0,0.1,0,0.1s0,0,0,0
			L107.1,61.2C107.1,61.2,107.1,61.2,107.1,61.2z M104,59.6c0.2,0.2,0.5,0.3,0.9,0.3c0.3,0,0.7-0.1,1-0.2c0.5-0.3,0.8-0.8,0.9-1.7
			c-0.3-0.2-0.7-0.3-1.2-0.3c-0.3,0-0.5,0-0.8,0.1c-0.3,0.1-0.5,0.2-0.7,0.4c-0.2,0.2-0.3,0.4-0.3,0.7
			C103.6,59.2,103.7,59.5,104,59.6z"/>
		<path class="st1" d="M112.4,60.8c-0.4-0.4-0.6-0.9-0.6-1.7v-3.6h-1.6c-0.1,0-0.1,0-0.1-0.1l0.4-1.5c0-0.1,0-0.1,0.1-0.1h1.2
			l0.6-1.9c0,0,0.1-0.1,0.1-0.1h1.1c0.1,0,0.1,0,0.1,0.1v1.9h2.3c0.1,0,0.1,0,0.1,0.1l-0.5,1.5c0,0.1,0,0.1-0.1,0.1h-1.7v3.3
			c0,0.6,0.3,0.9,0.9,0.9c0.3,0,0.8-0.1,1.3-0.3h0c0,0,0.1,0,0.1,0.1v1.3c0,0.1,0,0.1,0,0.1c-0.4,0.3-1.1,0.5-1.9,0.5
			C113.4,61.4,112.9,61.2,112.4,60.8z"/>
		<path class="st1" d="M117.5,51.2c0.4-0.5,0.9-0.9,1.3-1.3c0,0,0.1,0,0.1,0c0.5,0.4,0.9,0.8,1.3,1.3c0,0,0,0.1,0,0.1
			c-0.3,0.4-0.8,0.9-1.3,1.4c0,0-0.1,0-0.1,0c-0.5-0.4-1-0.9-1.4-1.4C117.4,51.3,117.4,51.2,117.5,51.2z M117.9,61.1v-5.8
			c0-0.7,0-1.2-0.1-1.6c0-0.1,0-0.1,0.1-0.1l2-0.2c0.1,0,0.1,0,0.1,0.1v7.6c0,0.1,0,0.1-0.1,0.1L117.9,61.1
			C117.9,61.2,117.9,61.2,117.9,61.1z"/>
		<path class="st1" d="M123.6,60.9c-0.6-0.3-1.1-0.8-1.4-1.4c-0.3-0.6-0.5-1.3-0.5-2.1c0-0.8,0.2-1.5,0.5-2.1
			c0.3-0.6,0.8-1.1,1.4-1.4c0.6-0.3,1.3-0.5,2.1-0.5c0.8,0,1.5,0.2,2.1,0.5c0.6,0.3,1.1,0.8,1.4,1.4c0.3,0.6,0.5,1.3,0.5,2.1
			c0,0.8-0.2,1.5-0.5,2.1c-0.3,0.6-0.8,1.1-1.4,1.4c-0.6,0.3-1.3,0.5-2.1,0.5C125,61.4,124.2,61.2,123.6,60.9z M124.2,59
			c0.4,0.4,0.9,0.7,1.6,0.7c0.7,0,1.3-0.2,1.6-0.7c0.3-0.4,0.5-1,0.5-1.7c0-0.7-0.2-1.3-0.6-1.7c-0.4-0.4-0.9-0.6-1.6-0.6
			c-0.6,0-1.2,0.2-1.6,0.6c-0.4,0.4-0.6,1-0.6,1.7C123.6,58,123.8,58.6,124.2,59z"/>
		<path class="st1" d="M136.6,61.1v-4.5c0-0.5-0.1-0.9-0.3-1.2c-0.2-0.2-0.6-0.4-1-0.4c-0.6,0-1.1,0.2-1.7,0.6v5.4
			c0,0.1,0,0.1-0.1,0.1h-1.8c-0.1,0-0.1,0-0.1-0.1v-5.2c0-1,0-1.7-0.1-2.2c0,0,0-0.1,0.1-0.1l1.9-0.3c0,0,0.1,0,0.1,0c0,0,0,0,0,0.1
			l-0.1,0.9c0.8-0.6,1.6-0.9,2.5-0.9c0.8,0,1.5,0.3,1.9,0.8c0.5,0.5,0.7,1.3,0.7,2.3v4.6c0,0.1,0,0.1-0.1,0.1L136.6,61.1
			C136.6,61.2,136.6,61.2,136.6,61.1z"/>
		<path class="st1" d="M145.5,61.2c0-0.1-0.1-0.4-0.1-0.9c-0.2,0.4-0.5,0.6-0.9,0.8c-0.4,0.2-0.9,0.3-1.7,0.3
			c-0.6,0-1.1-0.1-1.5-0.3c-0.4-0.2-0.7-0.5-0.9-0.9s-0.3-0.8-0.3-1.2c0-0.6,0.2-1.1,0.5-1.4c0.3-0.4,0.7-0.6,1.2-0.8
			c0.5-0.2,1.1-0.3,1.8-0.3c0.6,0,1.1,0.1,1.6,0.2c0-0.5-0.1-0.8-0.3-1.2s-0.6-0.5-1.3-0.5c-0.4,0-0.8,0.1-1.3,0.3
			c-0.5,0.2-0.8,0.4-1.2,0.7c0,0.1-0.1,0-0.1,0l-0.6-1.4c0-0.1,0-0.1,0-0.1c0.4-0.3,1-0.6,1.6-0.8c0.6-0.2,1.2-0.3,1.8-0.3
			c1.1,0,1.9,0.3,2.4,0.8c0.6,0.5,0.8,1.3,0.8,2.3v2.6c0,0.3,0,0.7,0.1,1.1c0.1,0.4,0.1,0.7,0.2,1c0,0,0,0.1,0,0.1s0,0,0,0
			L145.5,61.2C145.6,61.2,145.6,61.2,145.5,61.2z M142.5,59.6c0.2,0.2,0.5,0.3,0.9,0.3c0.3,0,0.7-0.1,1-0.2c0.5-0.3,0.8-0.8,0.9-1.7
			c-0.3-0.2-0.7-0.3-1.2-0.3c-0.3,0-0.5,0-0.8,0.1c-0.3,0.1-0.5,0.2-0.7,0.4c-0.2,0.2-0.3,0.4-0.3,0.7
			C142.1,59.2,142.2,59.5,142.5,59.6z"/>
		<path class="st1" d="M149.4,60.5c-0.1-0.3-0.2-0.7-0.2-1.2v-8.2c0-0.4,0-0.9-0.1-1.4c0,0,0-0.1,0-0.1c0,0,0,0,0.1,0l1.9-0.3
			c0.1,0,0.1,0,0.1,0.1v9.7c0,0.4,0.2,0.6,0.6,0.6c0.2,0,0.6-0.1,1-0.2c0.1,0,0.1,0,0.1,0.1v1.5c0,0,0,0.1,0,0.1
			c-0.1,0.1-0.3,0.1-0.6,0.2c-0.2,0-0.5,0.1-0.8,0.1c-0.6,0-1.1-0.1-1.4-0.2C149.8,61,149.6,60.8,149.4,60.5z"/>
		<path class="st1" d="M161.8,61.1v-9.2l-1.2,0c-0.7,0-1.5,0-2.3,0c-0.1,0-0.1,0-0.1-0.1l0.2-1.7c0,0,0,0,0-0.1c0,0,0,0,0.1,0h8.4
			c0,0,0,0,0.1,0c0,0,0,0,0,0.1l0.2,1.7c0,0.1,0,0.1-0.1,0.1c-1.1,0-2.2,0-3.4,0v9.2c0,0.1,0,0.1-0.1,0.1L161.8,61.1
			C161.8,61.2,161.8,61.2,161.8,61.1z"/>
		<path class="st1" d="M173.9,61.2c0-0.1-0.1-0.4-0.1-0.9c-0.2,0.4-0.5,0.6-0.9,0.8c-0.4,0.2-0.9,0.3-1.7,0.3
			c-0.6,0-1.1-0.1-1.5-0.3c-0.4-0.2-0.7-0.5-0.9-0.9c-0.2-0.4-0.3-0.8-0.3-1.2c0-0.6,0.2-1.1,0.5-1.4c0.3-0.4,0.7-0.6,1.2-0.8
			c0.5-0.2,1.1-0.3,1.8-0.3c0.6,0,1.1,0.1,1.6,0.2c0-0.5-0.1-0.8-0.3-1.2c-0.2-0.3-0.6-0.5-1.3-0.5c-0.4,0-0.8,0.1-1.3,0.3
			c-0.5,0.2-0.8,0.4-1.2,0.7c0,0.1-0.1,0-0.1,0l-0.6-1.4c0-0.1,0-0.1,0-0.1c0.4-0.3,1-0.6,1.6-0.8c0.6-0.2,1.2-0.3,1.8-0.3
			c1.1,0,1.9,0.3,2.4,0.8c0.6,0.5,0.8,1.3,0.8,2.3v2.6c0,0.3,0,0.7,0.1,1.1c0.1,0.4,0.1,0.7,0.2,1c0,0,0,0.1,0,0.1s0,0,0,0
			L173.9,61.2C174,61.2,174,61.2,173.9,61.2z M170.9,59.6c0.2,0.2,0.5,0.3,0.9,0.3c0.3,0,0.7-0.1,1-0.2c0.5-0.3,0.8-0.8,0.9-1.7
			c-0.3-0.2-0.7-0.3-1.2-0.3c-0.3,0-0.5,0-0.8,0.1c-0.3,0.1-0.5,0.2-0.7,0.4c-0.2,0.2-0.3,0.4-0.3,0.7
			C170.5,59.2,170.6,59.5,170.9,59.6z"/>
		<path class="st1" d="M177.5,51.2c0.4-0.5,0.9-0.9,1.3-1.3c0,0,0.1,0,0.1,0c0.5,0.4,0.9,0.8,1.3,1.3c0,0,0,0.1,0,0.1
			c-0.3,0.4-0.8,0.9-1.3,1.4c0,0-0.1,0-0.1,0c-0.5-0.4-1-0.9-1.4-1.4C177.4,51.3,177.4,51.2,177.5,51.2z M177.9,61.1v-5.8
			c0-0.7,0-1.2-0.1-1.6c0-0.1,0-0.1,0.1-0.1l2-0.2c0.1,0,0.1,0,0.1,0.1v7.6c0,0.1,0,0.1-0.1,0.1L177.9,61.1
			C177.9,61.2,177.9,61.2,177.9,61.1z"/>
		<path class="st1" d="M185.9,61.4c-0.6,0-1.2-0.1-1.9-0.3V65c0,0.1,0,0.1-0.1,0.1l-1.8,0.2c-0.1,0-0.1,0-0.1-0.1v-9.5
			c0-0.8,0-1.5-0.1-2c0,0,0-0.1,0-0.1c0,0,0,0,0.1,0l1.9-0.2c0.1,0,0.1,0,0.1,0l-0.1,1.1c0.8-0.7,1.7-1,2.6-1c0.6,0,1.1,0.2,1.6,0.5
			c0.5,0.3,0.8,0.7,1.1,1.3c0.3,0.6,0.4,1.2,0.4,1.9c0,1.3-0.3,2.3-0.9,3c-0.6,0.7-1.4,1.1-2.4,1.2
			C186.2,61.4,186.1,61.4,185.9,61.4z M184.8,59.8c0.3,0.1,0.6,0.1,0.9,0.1c0.6,0,1.1-0.3,1.4-0.7c0.3-0.5,0.5-1.1,0.5-1.8
			c0-0.8-0.2-1.3-0.5-1.7c-0.3-0.4-0.8-0.5-1.3-0.5c-0.6,0-1.1,0.2-1.7,0.6v3.8C184.3,59.6,184.5,59.8,184.8,59.8z"/>
		<path class="st1" d="M191.6,59.8c-0.5-0.7-0.7-1.4-0.7-2.3c0-0.8,0.2-1.4,0.5-2.1c0.3-0.6,0.8-1.1,1.4-1.5c0.6-0.4,1.3-0.5,2-0.5
			c0.7,0,1.4,0.2,1.9,0.5c0.5,0.3,1,0.8,1.2,1.4s0.4,1.3,0.4,2c0,0.2,0,0.4,0,0.7c0,0.1,0,0.1-0.1,0.1h-5.3c0.2,1.1,1,1.7,2.4,1.7
			c0.5,0,1-0.1,1.4-0.2c0.4-0.1,0.8-0.4,1.2-0.7c0.1,0,0.1,0,0.1,0.1l-0.1,1.6c0,0.1,0,0.1-0.1,0.2c-0.3,0.2-0.7,0.4-1.2,0.5
			c-0.5,0.1-1,0.2-1.6,0.2c-0.6,0-1.1-0.1-1.5-0.2C192.7,60.9,192.1,60.4,191.6,59.8z M196.5,56.6c0-0.4-0.1-0.8-0.4-1.1
			c-0.3-0.3-0.7-0.4-1.2-0.4c-0.5,0-0.9,0.1-1.2,0.4c-0.3,0.3-0.5,0.6-0.6,1.1H196.5z"/>
		<path class="st1" d="M199.9,51.2c0.4-0.5,0.9-0.9,1.3-1.3c0,0,0.1,0,0.1,0c0.5,0.4,0.9,0.8,1.3,1.3c0,0,0,0.1,0,0.1
			c-0.3,0.4-0.8,0.9-1.3,1.4c0,0-0.1,0-0.1,0c-0.5-0.4-1-0.9-1.4-1.4C199.8,51.3,199.8,51.2,199.9,51.2z M200.3,61.1v-5.8
			c0-0.7,0-1.2-0.1-1.6c0-0.1,0-0.1,0.1-0.1l2-0.2c0.1,0,0.1,0,0.1,0.1v7.6c0,0.1,0,0.1-0.1,0.1L200.3,61.1
			C200.3,61.2,200.3,61.2,200.3,61.1z"/>
		<path class="st1" d="M210.5,60.3c-0.8-0.7-1.2-1.8-1.2-3.2v-6.9c0-0.1,0-0.1,0.1-0.1h1.9c0.1,0,0.1,0,0.1,0.1V57
			c0,0.9,0.2,1.5,0.7,1.9c0.5,0.4,1.1,0.6,1.8,0.6c0.7,0,1.3-0.2,1.8-0.6c0.5-0.4,0.7-1,0.7-1.9v-6.9c0-0.1,0-0.1,0.1-0.1h1.9
			c0.1,0,0.1,0,0.1,0.1v6.9c0,1.4-0.4,2.5-1.2,3.2c-0.8,0.7-1.9,1.1-3.3,1.1C212.4,61.4,211.3,61,210.5,60.3z"/>
		<path class="st1" d="M225.6,61.1v-4.5c0-0.5-0.1-0.9-0.3-1.2c-0.2-0.2-0.6-0.4-1-0.4c-0.6,0-1.1,0.2-1.7,0.6v5.4
			c0,0.1,0,0.1-0.1,0.1h-1.8c-0.1,0-0.1,0-0.1-0.1v-5.2c0-1,0-1.7-0.1-2.2c0,0,0-0.1,0.1-0.1l1.9-0.3c0,0,0.1,0,0.1,0c0,0,0,0,0,0.1
			l-0.1,0.9c0.8-0.6,1.6-0.9,2.5-0.9c0.8,0,1.5,0.3,1.9,0.8c0.5,0.5,0.7,1.3,0.7,2.3v4.6c0,0.1,0,0.1-0.1,0.1L225.6,61.1
			C225.6,61.2,225.6,61.2,225.6,61.1z"/>
		<path class="st1" d="M229.3,51.2c0.4-0.5,0.9-0.9,1.3-1.3c0,0,0.1,0,0.1,0c0.5,0.4,0.9,0.8,1.3,1.3c0,0,0,0.1,0,0.1
			c-0.3,0.4-0.8,0.9-1.3,1.4c0,0-0.1,0-0.1,0c-0.5-0.4-1-0.9-1.4-1.4C229.3,51.3,229.3,51.2,229.3,51.2z M229.7,61.1v-5.8
			c0-0.7,0-1.2-0.1-1.6c0-0.1,0-0.1,0.1-0.1l2-0.2c0.1,0,0.1,0,0.1,0.1v7.6c0,0.1,0,0.1-0.1,0.1L229.7,61.1
			C229.8,61.2,229.7,61.2,229.7,61.1z"/>
		<path class="st1" d="M236.7,61.2l-3.6-7.5c0-0.1,0-0.1,0.1-0.1h2c0,0,0.1,0,0.1,0.1l2.1,4.9h0.1l1.8-4.9c0,0,0-0.1,0.1-0.1h2
			c0.1,0,0.1,0,0.1,0.1l-3.3,7.5c0,0.1-0.1,0.1-0.1,0.1h-1.3C236.8,61.2,236.7,61.2,236.7,61.2z"/>
		<path class="st1" d="M243.2,59.8c-0.5-0.7-0.7-1.4-0.7-2.3c0-0.8,0.2-1.4,0.5-2.1c0.3-0.6,0.8-1.1,1.4-1.5c0.6-0.4,1.3-0.5,2-0.5
			c0.7,0,1.4,0.2,1.9,0.5c0.5,0.3,1,0.8,1.2,1.4c0.3,0.6,0.4,1.3,0.4,2c0,0.2,0,0.4,0,0.7c0,0.1,0,0.1-0.1,0.1h-5.3
			c0.2,1.1,1,1.7,2.4,1.7c0.5,0,1-0.1,1.4-0.2c0.4-0.1,0.8-0.4,1.2-0.7c0.1,0,0.1,0,0.1,0.1l-0.1,1.6c0,0.1,0,0.1-0.1,0.2
			c-0.3,0.2-0.7,0.4-1.2,0.5c-0.5,0.1-1,0.2-1.6,0.2c-0.6,0-1.1-0.1-1.5-0.2C244.3,60.9,243.6,60.4,243.2,59.8z M248,56.6
			c0-0.4-0.1-0.8-0.4-1.1c-0.3-0.3-0.7-0.4-1.2-0.4c-0.5,0-0.9,0.1-1.2,0.4c-0.3,0.3-0.5,0.6-0.6,1.1H248z"/>
		<path class="st1" d="M251.6,61.1v-5.1c0-1,0-1.8-0.1-2.3c0-0.1,0-0.1,0.1-0.1l1.8-0.4h0c0.1,0,0.1,0,0.1,0.1l-0.1,1.4
			c0.3-0.4,0.6-0.8,1-1c0.4-0.2,0.9-0.3,1.3-0.3c0.3,0,0.6,0.1,1,0.2c0,0,0.1,0.1,0.1,0.1l-0.1,2c0,0,0,0.1,0,0.1c0,0-0.1,0-0.1,0
			c-0.1-0.2-0.3-0.3-0.4-0.4c-0.2-0.1-0.4-0.1-0.7-0.1c-0.4,0-0.7,0.1-1,0.2s-0.6,0.4-0.8,0.7v4.9c0,0.1,0,0.1-0.1,0.1L251.6,61.1
			C251.7,61.2,251.6,61.2,251.6,61.1z"/>
		<path class="st1" d="M259.3,61.1c-0.6-0.2-1.1-0.4-1.5-0.8c0,0,0,0,0-0.1l0.3-1.6c0-0.1,0-0.1,0.1,0c1,0.8,2.1,1.1,3.3,1.1
			c0.3,0,0.6,0,0.8-0.1c0.2-0.1,0.3-0.2,0.3-0.4c0-0.2-0.1-0.4-0.4-0.6c-0.2-0.1-0.7-0.3-1.3-0.5c-0.7-0.2-1.2-0.4-1.6-0.6
			c-0.4-0.2-0.7-0.4-0.9-0.7c-0.2-0.3-0.3-0.7-0.3-1.2c0-0.7,0.3-1.3,0.9-1.7s1.3-0.6,2.2-0.6c1.1,0,2,0.2,2.6,0.7
			c0,0,0.1,0.1,0,0.1l-0.4,1.6c0,0.1-0.1,0.1-0.1,0c-0.3-0.3-0.6-0.5-1-0.6S261.5,55,261,55c-0.7,0-1.1,0.2-1.1,0.6
			c0,0.2,0.1,0.4,0.3,0.5c0.2,0.1,0.6,0.3,1.2,0.4c1,0.3,1.8,0.6,2.3,1c0.5,0.4,0.8,0.9,0.8,1.6c0,0.7-0.3,1.3-0.8,1.7
			c-0.5,0.4-1.3,0.5-2.2,0.5C260.7,61.4,259.9,61.3,259.3,61.1z"/>
		<path class="st1" d="M265.8,51.2c0.4-0.5,0.9-0.9,1.3-1.3c0,0,0.1,0,0.1,0c0.5,0.4,0.9,0.8,1.3,1.3c0,0,0,0.1,0,0.1
			c-0.3,0.4-0.8,0.9-1.3,1.4c0,0-0.1,0-0.1,0c-0.5-0.4-1-0.9-1.4-1.4C265.8,51.3,265.8,51.2,265.8,51.2z M266.2,61.1v-5.8
			c0-0.7,0-1.2-0.1-1.6c0-0.1,0-0.1,0.1-0.1l2-0.2c0.1,0,0.1,0,0.1,0.1v7.6c0,0.1,0,0.1-0.1,0.1L266.2,61.1
			C266.3,61.2,266.2,61.2,266.2,61.1z"/>
		<path class="st1" d="M272.1,60.8c-0.4-0.4-0.6-0.9-0.6-1.7v-3.6h-1.6c-0.1,0-0.1,0-0.1-0.1l0.4-1.5c0-0.1,0-0.1,0.1-0.1h1.2
			l0.6-1.9c0,0,0.1-0.1,0.1-0.1h1.1c0.1,0,0.1,0,0.1,0.1v1.9h2.3c0.1,0,0.1,0,0.1,0.1l-0.5,1.5c0,0.1,0,0.1-0.1,0.1h-1.7v3.3
			c0,0.6,0.3,0.9,0.9,0.9c0.3,0,0.8-0.1,1.3-0.3h0c0.1,0,0.1,0,0.1,0.1v1.3c0,0.1,0,0.1,0,0.1c-0.4,0.3-1.1,0.5-1.9,0.5
			C273.1,61.4,272.5,61.2,272.1,60.8z"/>
		<path class="st1" d="M276.5,64.1C276.5,64.1,276.5,64.1,276.5,64.1c0.6-0.5,1-0.9,1.4-1.3c0.6-0.7,1.2-1.5,1.9-2.6l-3.2-6.6
			c0-0.1,0-0.1,0.1-0.1h2c0,0,0.1,0,0.1,0.1l2.1,4.8c0.7-1.3,1.3-2.9,1.9-4.8c0,0,0.1-0.1,0.1-0.1h2c0,0,0.1,0,0.1,0c0,0,0,0,0,0.1
			c-0.6,1.5-1.2,2.8-1.7,3.9c-0.5,1.1-1.1,2.2-1.7,3.3c-0.7,1.1-1.4,2.2-2.3,3.3c-0.4,0.5-0.8,0.9-1.2,1.3c-0.1,0-0.1,0-0.1,0
			L276.5,64.1C276.5,64.2,276.5,64.2,276.5,64.1z"/>
		<path class="st1" d="M292.4,60.9c-0.6-0.3-1.1-0.8-1.4-1.4c-0.3-0.6-0.5-1.3-0.5-2.1c0-0.8,0.2-1.5,0.5-2.1
			c0.3-0.6,0.8-1.1,1.4-1.4c0.6-0.3,1.3-0.5,2.1-0.5c0.8,0,1.5,0.2,2.1,0.5c0.6,0.3,1.1,0.8,1.4,1.4c0.3,0.6,0.5,1.3,0.5,2.1
			c0,0.8-0.2,1.5-0.5,2.1c-0.3,0.6-0.8,1.1-1.4,1.4c-0.6,0.3-1.3,0.5-2.1,0.5C293.7,61.4,293,61.2,292.4,60.9z M293,59
			c0.4,0.4,0.9,0.7,1.6,0.7c0.7,0,1.3-0.2,1.6-0.7c0.3-0.4,0.5-1,0.5-1.7c0-0.7-0.2-1.3-0.6-1.7c-0.4-0.4-0.9-0.6-1.6-0.6
			c-0.6,0-1.2,0.2-1.6,0.6c-0.4,0.4-0.6,1-0.6,1.7C292.4,58,292.6,58.6,293,59z"/>
		<path class="st1" d="M300.8,61.1v-4.7c0-0.3-0.1-0.5-0.3-0.8c-0.2-0.2-0.5-0.4-0.9-0.5c-0.1,0-0.1-0.1,0-0.1l1.3-1.1
			c0,0,0-0.1,0-0.1v-0.7c0-0.7,0.1-1.4,0.4-2c0.3-0.6,0.7-1,1.2-1.3c0.5-0.3,1.1-0.5,1.8-0.5c0.5,0,0.9,0.1,1.3,0.3
			c0.1,0,0.1,0.1,0.1,0.1v1.9c0,0,0,0.1,0,0.1c0,0,0,0-0.1,0c-0.2-0.2-0.5-0.3-0.7-0.4c-0.2-0.1-0.4-0.1-0.7-0.1
			c-0.5,0-0.8,0.2-1.1,0.5c-0.2,0.3-0.3,0.8-0.3,1.5v0.6h2.5c0.1,0,0.1,0,0.1,0.1l-0.4,1.5c0,0.1,0,0.1-0.1,0.1h-2.1v5.6
			c0,0.1,0,0.1-0.1,0.1L300.8,61.1C300.9,61.2,300.8,61.2,300.8,61.1z"/>
		<path class="st1" d="M311.8,61.1v-11c0-0.1,0-0.1,0.1-0.1h2.6c1.3,0,2.2,0.2,2.7,0.7c0.6,0.5,0.8,1.1,0.8,1.9c0,0.9-0.3,1.5-1,2
			c0.9,0.2,1.6,0.5,2.1,1.1c0.5,0.5,0.7,1.2,0.7,2c0,0.7-0.2,1.3-0.5,1.8c-0.3,0.5-0.8,0.9-1.4,1.2c-0.6,0.3-1.3,0.4-2.1,0.4
			L311.8,61.1C311.8,61.2,311.8,61.2,311.8,61.1z M314.7,54.1c1,0,1.4-0.4,1.4-1.2c0-0.4-0.1-0.7-0.3-0.9c-0.2-0.2-0.5-0.3-1-0.3h-1
			v2.3H314.7z M315.7,59.5c0.7,0,1.2-0.2,1.5-0.5s0.5-0.8,0.5-1.4c0-0.6-0.2-1-0.5-1.4c-0.3-0.3-0.7-0.5-1.3-0.5h-2.1v3.7H315.7z"/>
		<path class="st1" d="M322.2,60.6c-0.5-0.5-0.8-1.3-0.8-2.2v-2.7c0-0.7,0-1.4-0.1-1.9c0,0,0-0.1,0.1-0.1l1.9-0.3
			c0.1,0,0.1,0,0.1,0.1v4.7c0,0.5,0.1,0.9,0.3,1.2c0.2,0.3,0.6,0.4,1,0.4c0.6,0,1.2-0.2,1.7-0.5v-5.5c0,0,0,0,0-0.1c0,0,0,0,0.1,0
			l1.8-0.2c0.1,0,0.1,0,0.1,0.1v5.2c0,1.2,0,2,0.1,2.5c0,0,0,0.1-0.1,0.1l-1.8,0.3c-0.1,0-0.1,0-0.1-0.1v-0.9
			c-0.3,0.2-0.7,0.4-1.1,0.6c-0.4,0.1-0.8,0.2-1.3,0.2C323.4,61.4,322.7,61.1,322.2,60.6z"/>
		<path class="st1" d="M331.6,61.1c-0.6-0.2-1.1-0.4-1.5-0.8c0,0,0,0,0-0.1l0.3-1.6c0-0.1,0-0.1,0.1,0c1,0.8,2.1,1.1,3.3,1.1
			c0.3,0,0.6,0,0.8-0.1c0.2-0.1,0.3-0.2,0.3-0.4c0-0.2-0.1-0.4-0.4-0.6c-0.2-0.1-0.7-0.3-1.3-0.5c-0.7-0.2-1.2-0.4-1.6-0.6
			c-0.4-0.2-0.7-0.4-0.9-0.7c-0.2-0.3-0.3-0.7-0.3-1.2c0-0.7,0.3-1.3,0.9-1.7c0.6-0.4,1.3-0.6,2.2-0.6c1.1,0,2,0.2,2.6,0.7
			c0,0,0.1,0.1,0,0.1l-0.4,1.6c0,0.1-0.1,0.1-0.1,0c-0.3-0.3-0.6-0.5-1-0.6s-0.8-0.2-1.3-0.2c-0.7,0-1.1,0.2-1.1,0.6
			c0,0.2,0.1,0.4,0.3,0.5c0.2,0.1,0.6,0.3,1.2,0.4c1,0.3,1.8,0.6,2.3,1s0.8,0.9,0.8,1.6c0,0.7-0.3,1.3-0.8,1.7
			c-0.5,0.4-1.3,0.5-2.2,0.5C332.9,61.4,332.2,61.3,331.6,61.1z"/>
		<path class="st1" d="M338.1,51.2c0.4-0.5,0.9-0.9,1.3-1.3c0,0,0.1,0,0.1,0c0.5,0.4,0.9,0.8,1.3,1.3c0,0,0,0.1,0,0.1
			c-0.3,0.4-0.8,0.9-1.3,1.4c0,0-0.1,0-0.1,0c-0.5-0.4-1-0.9-1.4-1.4C338,51.3,338,51.2,338.1,51.2z M338.5,61.1v-5.8
			c0-0.7,0-1.2-0.1-1.6c0-0.1,0-0.1,0.1-0.1l2-0.2c0.1,0,0.1,0,0.1,0.1v7.6c0,0.1,0,0.1-0.1,0.1L338.5,61.1
			C338.5,61.2,338.5,61.2,338.5,61.1z"/>
		<path class="st1" d="M347.7,61.1v-4.5c0-0.5-0.1-0.9-0.3-1.2c-0.2-0.2-0.6-0.4-1-0.4c-0.6,0-1.1,0.2-1.7,0.6v5.4
			c0,0.1,0,0.1-0.1,0.1h-1.8c-0.1,0-0.1,0-0.1-0.1v-5.2c0-1,0-1.7-0.1-2.2c0,0,0-0.1,0.1-0.1l1.9-0.3c0,0,0.1,0,0.1,0c0,0,0,0,0,0.1
			l-0.1,0.9c0.8-0.6,1.6-0.9,2.5-0.9c0.8,0,1.5,0.3,1.9,0.8c0.5,0.5,0.7,1.3,0.7,2.3v4.6c0,0.1,0,0.1-0.1,0.1L347.7,61.1
			C347.7,61.2,347.7,61.2,347.7,61.1z"/>
		<path class="st1" d="M351.9,59.8c-0.5-0.7-0.7-1.4-0.7-2.3c0-0.8,0.2-1.4,0.5-2.1c0.3-0.6,0.8-1.1,1.4-1.5c0.6-0.4,1.3-0.5,2-0.5
			c0.7,0,1.4,0.2,1.9,0.5c0.5,0.3,1,0.8,1.2,1.4c0.3,0.6,0.4,1.3,0.4,2c0,0.2,0,0.4,0,0.7c0,0.1,0,0.1-0.1,0.1h-5.3
			c0.2,1.1,1,1.7,2.4,1.7c0.5,0,1-0.1,1.4-0.2c0.4-0.1,0.8-0.4,1.2-0.7c0.1,0,0.1,0,0.1,0.1l-0.1,1.6c0,0.1,0,0.1-0.1,0.2
			c-0.3,0.2-0.7,0.4-1.2,0.5s-1,0.2-1.6,0.2c-0.6,0-1.1-0.1-1.5-0.2C353.1,60.9,352.4,60.4,351.9,59.8z M356.8,56.6
			c0-0.4-0.1-0.8-0.4-1.1c-0.3-0.3-0.7-0.4-1.2-0.4c-0.5,0-0.9,0.1-1.2,0.4c-0.3,0.3-0.5,0.6-0.6,1.1H356.8z"/>
		<path class="st1" d="M361.5,61.1c-0.6-0.2-1.1-0.4-1.5-0.8c0,0,0,0,0-0.1l0.3-1.6c0-0.1,0-0.1,0.1,0c1,0.8,2.1,1.1,3.3,1.1
			c0.3,0,0.6,0,0.8-0.1c0.2-0.1,0.3-0.2,0.3-0.4c0-0.2-0.1-0.4-0.4-0.6c-0.2-0.1-0.7-0.3-1.3-0.5c-0.7-0.2-1.2-0.4-1.6-0.6
			c-0.4-0.2-0.7-0.4-0.9-0.7c-0.2-0.3-0.3-0.7-0.3-1.2c0-0.7,0.3-1.3,0.9-1.7c0.6-0.4,1.3-0.6,2.2-0.6c1.1,0,2,0.2,2.6,0.7
			c0,0,0.1,0.1,0,0.1l-0.4,1.6c0,0.1-0.1,0.1-0.1,0c-0.3-0.3-0.6-0.5-1-0.6s-0.8-0.2-1.3-0.2c-0.7,0-1.1,0.2-1.1,0.6
			c0,0.2,0.1,0.4,0.3,0.5c0.2,0.1,0.6,0.3,1.2,0.4c1,0.3,1.8,0.6,2.3,1c0.5,0.4,0.8,0.9,0.8,1.6c0,0.7-0.3,1.3-0.8,1.7
			c-0.5,0.4-1.3,0.5-2.2,0.5C362.8,61.4,362.1,61.3,361.5,61.1z"/>
		<path class="st1" d="M369.2,61.1c-0.6-0.2-1.1-0.4-1.5-0.8c0,0,0,0,0-0.1l0.3-1.6c0-0.1,0-0.1,0.1,0c1,0.8,2.1,1.1,3.3,1.1
			c0.3,0,0.6,0,0.8-0.1c0.2-0.1,0.3-0.2,0.3-0.4c0-0.2-0.1-0.4-0.4-0.6c-0.2-0.1-0.7-0.3-1.3-0.5c-0.7-0.2-1.2-0.4-1.6-0.6
			c-0.4-0.2-0.7-0.4-0.9-0.7c-0.2-0.3-0.3-0.7-0.3-1.2c0-0.7,0.3-1.3,0.9-1.7c0.6-0.4,1.3-0.6,2.2-0.6c1.1,0,2,0.2,2.6,0.7
			c0,0,0.1,0.1,0,0.1l-0.4,1.6c0,0.1-0.1,0.1-0.1,0c-0.3-0.3-0.6-0.5-1-0.6s-0.8-0.2-1.3-0.2c-0.7,0-1.1,0.2-1.1,0.6
			c0,0.2,0.1,0.4,0.3,0.5c0.2,0.1,0.6,0.3,1.2,0.4c1,0.3,1.8,0.6,2.3,1s0.8,0.9,0.8,1.6c0,0.7-0.3,1.3-0.8,1.7
			c-0.5,0.4-1.3,0.5-2.2,0.5C370.5,61.4,369.8,61.3,369.2,61.1z"/>
		<path class="st1" d="M380.7,61.1v-11c0-0.1,0-0.1,0.1-0.1h1.9c0.1,0,0.1,0,0.1,0.1v9.2h4.2c0.1,0,0.1,0,0.1,0.1l-0.4,1.7
			c0,0.1-0.1,0.1-0.1,0.1L380.7,61.1C380.7,61.2,380.7,61.2,380.7,61.1z"/>
		<path class="st1" d="M388.4,51.2c0.4-0.5,0.9-0.9,1.3-1.3c0,0,0.1,0,0.1,0c0.5,0.4,0.9,0.8,1.3,1.3c0,0,0,0.1,0,0.1
			c-0.3,0.4-0.8,0.9-1.3,1.4c0,0-0.1,0-0.1,0c-0.5-0.4-1-0.9-1.4-1.4C388.3,51.3,388.3,51.2,388.4,51.2z M388.8,61.1v-5.8
			c0-0.7,0-1.2-0.1-1.6c0-0.1,0-0.1,0.1-0.1l2-0.2c0.1,0,0.1,0,0.1,0.1v7.6c0,0.1,0,0.1-0.1,0.1L388.8,61.1
			C388.8,61.2,388.8,61.2,388.8,61.1z"/>
		<path class="st1" d="M394.8,60.5c0,0.1,0,0.4,0,0.7c0,0,0,0.1-0.1,0.1l-1.7,0.2c-0.1,0-0.1,0-0.1-0.1V51.1c0-0.4,0-0.9-0.1-1.5
			c0,0,0-0.1,0.1-0.1l1.9-0.3c0.1,0,0.1,0,0.1,0.1v4.7c0.7-0.4,1.4-0.7,2-0.7c0.6,0,1.2,0.2,1.7,0.5c0.5,0.3,1,0.8,1.3,1.4
			c0.3,0.6,0.5,1.4,0.5,2.2c0,0.8-0.1,1.4-0.4,2c-0.3,0.6-0.7,1-1.2,1.3c-0.5,0.3-1.1,0.5-1.7,0.5C396.3,61.3,395.5,61,394.8,60.5z
			 M396.6,59.8c0.5,0,1-0.2,1.4-0.6c0.4-0.4,0.6-1,0.6-1.8c0-0.8-0.2-1.4-0.5-1.8c-0.3-0.5-0.7-0.7-1.3-0.7c-0.6,0-1.2,0.2-1.7,0.6
			v3.6C395.5,59.6,396,59.8,396.6,59.8z"/>
		<path class="st1" d="M402.2,61.1v-5.1c0-1,0-1.8-0.1-2.3c0-0.1,0-0.1,0.1-0.1l1.8-0.4h0c0.1,0,0.1,0,0.1,0.1l-0.1,1.4
			c0.3-0.4,0.6-0.8,1-1c0.4-0.2,0.9-0.3,1.3-0.3c0.3,0,0.6,0.1,1,0.2c0.1,0,0.1,0.1,0.1,0.1l-0.1,2c0,0,0,0.1,0,0.1c0,0-0.1,0-0.1,0
			c-0.1-0.2-0.3-0.3-0.4-0.4c-0.2-0.1-0.4-0.1-0.7-0.1c-0.4,0-0.7,0.1-1,0.2s-0.6,0.4-0.8,0.7v4.9c0,0.1,0,0.1-0.1,0.1L402.2,61.1
			C402.2,61.2,402.2,61.2,402.2,61.1z"/>
		<path class="st1" d="M413.9,61.2c0-0.1-0.1-0.4-0.1-0.9c-0.2,0.4-0.5,0.6-0.9,0.8c-0.4,0.2-0.9,0.3-1.7,0.3
			c-0.6,0-1.1-0.1-1.5-0.3c-0.4-0.2-0.7-0.5-0.9-0.9c-0.2-0.4-0.3-0.8-0.3-1.2c0-0.6,0.2-1.1,0.5-1.4c0.3-0.4,0.7-0.6,1.2-0.8
			c0.5-0.2,1.1-0.3,1.8-0.3c0.6,0,1.1,0.1,1.6,0.2c0-0.5-0.1-0.8-0.3-1.2c-0.2-0.3-0.6-0.5-1.3-0.5c-0.4,0-0.8,0.1-1.3,0.3
			c-0.5,0.2-0.8,0.4-1.2,0.7c-0.1,0.1-0.1,0-0.1,0l-0.6-1.4c0-0.1,0-0.1,0-0.1c0.4-0.3,1-0.6,1.6-0.8c0.6-0.2,1.2-0.3,1.8-0.3
			c1.1,0,1.9,0.3,2.4,0.8c0.6,0.5,0.8,1.3,0.8,2.3v2.6c0,0.3,0,0.7,0.1,1.1c0.1,0.4,0.1,0.7,0.2,1c0,0,0,0.1,0,0.1c0,0,0,0,0,0
			L413.9,61.2C413.9,61.2,413.9,61.2,413.9,61.2z M410.8,59.6c0.2,0.2,0.5,0.3,0.9,0.3s0.7-0.1,1-0.2c0.5-0.3,0.8-0.8,0.9-1.7
			c-0.3-0.2-0.7-0.3-1.2-0.3c-0.3,0-0.5,0-0.8,0.1c-0.3,0.1-0.5,0.2-0.7,0.4c-0.2,0.2-0.3,0.4-0.3,0.7
			C410.5,59.2,410.6,59.5,410.8,59.6z"/>
		<path class="st1" d="M417.6,61.1v-5.1c0-1,0-1.8-0.1-2.3c0-0.1,0-0.1,0.1-0.1l1.8-0.4h0c0.1,0,0.1,0,0.1,0.1l-0.1,1.4
			c0.3-0.4,0.6-0.8,1-1c0.4-0.2,0.9-0.3,1.3-0.3c0.3,0,0.6,0.1,1,0.2c0.1,0,0.1,0.1,0.1,0.1l-0.1,2c0,0,0,0.1,0,0.1c0,0-0.1,0-0.1,0
			c-0.1-0.2-0.3-0.3-0.4-0.4c-0.2-0.1-0.4-0.1-0.7-0.1c-0.4,0-0.7,0.1-1,0.2s-0.6,0.4-0.8,0.7v4.9c0,0.1,0,0.1-0.1,0.1L417.6,61.1
			C417.6,61.2,417.6,61.2,417.6,61.1z"/>
		<path class="st1" d="M423.4,64.1C423.4,64.1,423.4,64.1,423.4,64.1c0.6-0.5,1-0.9,1.4-1.3c0.6-0.7,1.2-1.5,1.9-2.6l-3.2-6.6
			c0-0.1,0-0.1,0.1-0.1h2c0,0,0.1,0,0.1,0.1l2.1,4.8c0.7-1.3,1.3-2.9,1.9-4.8c0,0,0.1-0.1,0.1-0.1h2c0,0,0.1,0,0.1,0c0,0,0,0,0,0.1
			c-0.6,1.5-1.2,2.8-1.7,3.9c-0.5,1.1-1.1,2.2-1.7,3.3c-0.7,1.1-1.4,2.2-2.3,3.3c-0.4,0.5-0.8,0.9-1.2,1.3c-0.1,0-0.1,0-0.1,0
			L423.4,64.1C423.4,64.2,423.4,64.2,423.4,64.1z"/>
	</g>
	<g>
		<path class="st1" d="M93,16h19.6c2.5,0,3.8,1.3,3.8,3.8v20c0,2.5-1.3,3.8-3.8,3.8H93c-2.5,0-3.8-1.3-3.8-3.8v-20
			C89.3,17.3,90.5,16,93,16z M111.3,40.2c0.7,0,1-0.3,1-1V20.5c0-0.7-0.3-1-1-1H94.4c-0.7,0-1,0.3-1,1v18.8c0,0.7,0.3,1,1,1H111.3z
			 M95.5,22.5h7.7v-0.7c0-0.6,0.1-1.1,0.4-1.3c0.3-0.2,0.7-0.3,1.3-0.3c0.5,0,1,0.1,1.3,0.4c0.3,0.2,0.5,0.7,0.5,1.2v0.7h1.4
			c-0.1-0.3-0.3-0.7-0.6-1.1v-0.1c0-0.2,0-0.4,0.1-0.6c0.1-0.3,0.4-0.5,0.7-0.7c0.2-0.1,0.5-0.2,0.7-0.2c0.6,0,1,0.2,1.4,0.5
			c0.1,0.1,0.3,0.4,0.5,0.8c0.1,0.3,0.2,0.5,0.2,0.7c0,0.4-0.1,0.7-0.3,0.9c0.1,0.1,0.3,0.1,0.3,0.2c0.2,0.2,0.4,0.6,0.4,1.2
			c0,0.5-0.1,0.8-0.3,1c-0.3,0.4-0.7,0.5-1.3,0.5h-3.2c0.1,1.7,0.2,3.1,0.4,4.2c0.6-0.9,0.9-1.6,1.1-2.1c0.2-0.7,0.6-1.1,1-1.1
			c0.5,0,1,0.1,1.5,0.3c0.4,0.3,0.6,0.7,0.6,1.4c0,0.3-0.1,0.7-0.3,1.1c-0.7,1.6-1.7,3-2.8,4.5c0.1,0.3,0.2,0.6,0.4,0.8
			c0.2,0.3,0.4,0.5,0.6,0.5c0.2,0,0.5-0.2,0.9-0.6c0.2-0.1,0.4-0.2,0.6-0.2c0.3,0,0.5,0.1,0.7,0.3c0.3,0.2,0.4,0.9,0.4,1.8
			c0,0.6-0.2,1.2-0.5,1.6c-0.6,0.8-1.4,1.2-2.3,1.2c-0.9,0-1.7-0.5-2.5-1.5c-0.2-0.3-0.5-0.7-0.7-1.1c-0.7,0.8-1.5,1.5-2.3,2.2
			c-0.4,0.2-0.7,0.3-1,0.3c-0.7,0-1.2-0.2-1.6-0.6c-0.3-0.3-0.5-0.8-0.6-1.4c-0.8,0.1-1.9,0.3-3.3,0.5c-0.6,0.1-1.2,0.2-1.7,0.2
			c-0.4,0-0.7-0.2-1-0.5c-0.2-0.3-0.4-0.7-0.4-1.1c0-0.6,0.3-1.1,0.8-1.5c2.1-0.3,4.3-0.6,6.6-0.9c0.5,0,0.7,0.1,0.8,0.4
			c0.2,0.2,0.3,0.4,0.3,0.6c0.8-0.6,1.4-1.2,2-1.9c-0.2-0.8-0.4-1.7-0.6-2.7c-0.2-1.6-0.4-3.3-0.5-5h-7.9c-0.5,0-0.9-0.1-1.2-0.4
			c-0.3-0.2-0.4-0.6-0.4-1.2c0-0.6,0.1-1,0.4-1.2C94.6,22.7,95,22.5,95.5,22.5z M96.4,26.6h4.3c1.3,0,2,0.6,2,1.9v3.1
			c0,1.3-0.7,2-2,2h-4.3c-1.3,0-1.9-0.7-1.9-2v-3.1C94.4,27.3,95.1,26.6,96.4,26.6z M99.3,31.1c0.3,0,0.4-0.1,0.4-0.3v-1.4
			c0-0.3-0.1-0.4-0.4-0.4h-1.6c-0.2,0-0.3,0.1-0.3,0.4v1.4c0,0.2,0.1,0.3,0.3,0.3H99.3z"/>
		<path class="st1" d="M140.9,24.5c0.8,0,1.5,0.2,2,0.5c0.6,0.2,0.9,0.8,0.9,1.7c0,0.4-0.1,0.9-0.2,1.3c-0.7,3.6-1.9,7-3.4,10.2h6.4
			c0.8,0,1.3,0.2,1.7,0.5c0.3,0.2,0.5,0.8,0.5,1.6c0,0.7-0.1,1.1-0.4,1.4c-0.4,0.5-0.9,0.7-1.7,0.7h-24.3c-0.7,0-1.2-0.2-1.6-0.5
			c-0.3-0.3-0.5-0.8-0.5-1.6c0-0.8,0.2-1.3,0.5-1.6c0.3-0.3,0.9-0.5,1.6-0.5h13c0.1-0.3,0.2-0.6,0.3-0.9c1.6-3.2,3-7,4-11.5
			C139.7,25,140.2,24.5,140.9,24.5z M134.2,15.5c0.9,0,1.5,0.2,1.8,0.5c0.5,0.4,0.8,1,0.8,1.6v1.5h9.1c0.8,0,1.3,0.1,1.6,0.4
			c0.3,0.3,0.5,0.8,0.5,1.6c0,0.6-0.1,1.1-0.4,1.4c-0.4,0.4-0.9,0.6-1.7,0.6h-23c-0.7,0-1.2-0.2-1.6-0.5c-0.3-0.3-0.5-0.8-0.5-1.6
			c0-0.8,0.2-1.4,0.5-1.6c0.3-0.3,0.9-0.4,1.6-0.4h8.8v-1.5c0-0.6,0.2-1.1,0.7-1.7C132.8,15.7,133.4,15.5,134.2,15.5z M126.6,25
			c0.8,0,1.3,0.3,1.6,0.9c1.1,1.9,2.2,4.5,3.3,7.8c0.2,0.7,0.4,1.2,0.4,1.7c0,0.7-0.2,1.2-0.6,1.6c-0.5,0.4-1.1,0.6-1.7,0.7
			c-1,0-1.6-0.4-1.9-1.2c-0.9-2.9-2-5.6-3.1-8.1c-0.2-0.5-0.4-0.9-0.4-1.2c0-0.6,0.3-1.1,0.8-1.5C125.4,25.2,126,25,126.6,25z"/>
		<path class="st1" d="M153,16.7h10.5c0.1-0.3,0.2-0.6,0.4-0.8c0.3-0.3,0.9-0.5,1.7-0.5c0.8,0,1.4,0.2,1.7,0.5
			c0.2,0.2,0.4,0.5,0.5,0.8h10.9c0.4,0,0.7,0.1,1,0.2c0.2,0.1,0.3,0.4,0.3,0.9c0,0.3-0.1,0.6-0.2,0.8c-0.2,0.3-0.6,0.4-1,0.4h-10.8
			v0.8h9.8c0.3,0,0.6,0.1,0.8,0.2c0.1,0.1,0.2,0.4,0.2,0.7c0,0.3-0.1,0.6-0.2,0.8c-0.2,0.2-0.5,0.4-0.8,0.4h-23.8
			c-0.3,0-0.6-0.1-0.8-0.3c-0.2-0.1-0.2-0.4-0.2-0.9c0-0.4,0.1-0.6,0.2-0.7c0.1-0.2,0.4-0.2,0.8-0.2h9.5V19H153
			c-0.4,0-0.7-0.1-0.9-0.3c-0.2-0.2-0.3-0.5-0.3-0.9c0-0.4,0.1-0.7,0.3-0.9C152.2,16.7,152.5,16.7,153,16.7z M157.8,31.2h15.8
			c0.3,0,0.5,0.1,0.7,0.2c0.2,0.1,0.3,0.4,0.3,0.9c0,0.3-0.1,0.6-0.2,0.7c-0.2,0.2-0.5,0.4-0.8,0.4c1.6,1,2.7,1.8,3.3,2.6
			c0.2,0.2,0.2,0.4,0.2,0.7c0,0.3-0.1,0.6-0.4,1c-0.2,0.2-0.3,0.3-0.5,0.4h1c0.3,0,0.6,0.1,0.8,0.2c0.2,0.1,0.3,0.4,0.3,0.9
			c0,0.4-0.1,0.7-0.2,0.9c-0.2,0.2-0.5,0.4-0.9,0.4H168v1.1h10.7c0.3,0,0.6,0.1,0.8,0.2c0.2,0.1,0.3,0.4,0.3,0.9
			c0,0.4-0.1,0.7-0.2,0.8c-0.2,0.3-0.5,0.4-0.9,0.4H153c-0.3,0-0.6-0.1-0.8-0.3c-0.2-0.2-0.3-0.5-0.3-0.9c0-0.4,0.1-0.8,0.3-0.9
			c0.1-0.1,0.4-0.2,0.8-0.2h10.8v-1.1h-9.6c-0.3,0-0.6-0.1-0.8-0.3c-0.2-0.2-0.3-0.5-0.3-1c0-0.4,0.1-0.7,0.3-0.9
			c0.1-0.1,0.4-0.2,0.8-0.2h9.6v-0.5c0-0.2,0.1-0.4,0.2-0.6l-8.3,0.3c-0.4,0-0.7-0.1-0.9-0.4c-0.2-0.2-0.3-0.5-0.3-0.9
			c0-0.4,0.1-0.7,0.4-0.9c0.2-0.1,0.4-0.2,0.7-0.2l2.8-0.1l1.3-1.5h-1.8c-0.3,0-0.6-0.1-0.7-0.3c-0.2-0.2-0.3-0.4-0.3-0.8
			c0-0.4,0.1-0.8,0.3-0.9C157.2,31.3,157.4,31.2,157.8,31.2z M154.6,28.3h22.2c1.8,0,2.7,0.6,2.7,1.7v2.2c0,0.6-0.2,1-0.5,1.3
			c-0.3,0.3-0.8,0.4-1.4,0.4c-0.7,0-1.2-0.1-1.5-0.4c-0.2-0.2-0.3-0.6-0.3-1v-1.8c0-0.2-0.2-0.3-0.6-0.3h-18.8
			c-0.3,0-0.5,0.1-0.5,0.3v1.7c0,0.6-0.1,0.9-0.4,1.1c-0.3,0.2-0.8,0.3-1.5,0.3c-0.6,0-1.1-0.1-1.4-0.4c-0.3-0.3-0.5-0.8-0.5-1.3V30
			C152,28.9,152.8,28.3,154.6,28.3z M156.4,22.8h18.5c1.4,0,2.1,0.5,2.1,1.5v1.2c0,1.3-0.5,1.9-1.6,1.9h-19.6c-1,0-1.5-0.6-1.5-1.9
			v-1.2C154.3,23.3,155,22.8,156.4,22.8z M172.7,25.6c0.3,0,0.4-0.3,0.4-0.8c0-0.2-0.1-0.2-0.4-0.2h-14.1c-0.3,0-0.4,0.1-0.4,0.2
			c0,0.5,0.1,0.8,0.4,0.8H172.7z M170.5,34.6c-0.1-0.1-0.1-0.1-0.2-0.2c-0.1-0.1-0.3-0.2-0.3-0.3c-0.1-0.1-0.1-0.3-0.1-0.6h-6.8
			l-1.1,1.4L170.5,34.6z M167.8,36.9c0.1,0.2,0.2,0.5,0.2,0.8v0.5h7.1c-0.1-0.1-0.2-0.1-0.2-0.2c-0.6-0.5-1.1-0.9-1.6-1.3
			L167.8,36.9z"/>
		<path class="st1" d="M192.6,15.5c0.7,0,1.2,0.2,1.6,0.6c0.4,0.4,0.6,0.9,0.6,1.6v24c0,0.6-0.1,1.1-0.4,1.4c-0.4,0.5-1,0.8-1.8,0.8
			c-0.8,0-1.3-0.3-1.7-0.8c-0.3-0.4-0.5-0.8-0.5-1.4V39c-1.4,0.8-3,1.7-4.8,2.6c-0.4,0.1-0.9,0.2-1.4,0.2c-1-0.4-1.5-1.3-1.6-2.7
			c0-0.6,0.3-1,1-1.4c2.4-0.9,4.7-2,6.8-3.2v-7.9h-5.5c-0.7,0-1.2-0.2-1.5-0.5c-0.3-0.3-0.5-0.8-0.5-1.6c0-0.8,0.2-1.3,0.6-1.7
			c0.3-0.3,0.8-0.4,1.4-0.4h5.5v-4.8c0-0.7,0.2-1.3,0.6-1.6C191.4,15.7,191.9,15.5,192.6,15.5z M209.1,20.2c0.7,0,1.2,0.3,1.6,0.8
			c0.4,0.3,0.6,0.9,0.6,1.8c0,0.6-0.3,1.1-0.9,1.6c-1.3,0.8-2.7,1.4-4.4,2c-1,0.4-2,0.7-3,0.9v11.4c0,0.6,0.3,0.8,0.9,0.8h2.1
			c0.4,0,0.7-0.3,0.9-0.8c0.2-0.9,0.4-2.2,0.5-3.8c0.2-0.6,0.8-0.9,1.8-1c0.7,0,1.2,0.2,1.7,0.6c0.4,0.3,0.6,0.8,0.6,1.4
			c0,2.1-0.3,3.8-1,5.2c-0.6,1.5-1.8,2.3-3.6,2.5h-5.2c-1.1,0-2-0.4-2.5-1.1c-0.5-0.6-0.7-1.6-0.7-3V17.5c0-0.6,0.2-1.1,0.6-1.5
			c0.4-0.3,1-0.5,1.7-0.5c0.6,0,1.1,0.2,1.6,0.5c0.4,0.4,0.6,0.9,0.6,1.5v5.6c1.6-0.7,3.3-1.5,5.1-2.5
			C208.4,20.4,208.7,20.2,209.1,20.2z"/>
		<path class="st1" d="M228.6,15.5c0.9,0,1.5,0.2,1.8,0.5c0.5,0.5,0.8,1,0.8,1.7v0.1h9.7c0.7,0,1.2,0.1,1.4,0.4
			c0.3,0.2,0.4,0.7,0.4,1.4c0,0.6-0.1,1-0.3,1.3c-0.3,0.4-0.9,0.6-1.5,0.6h-4l-0.9,2.6h2.1c2.1,0,3.1,1,3.1,3V41
			c0,1.2-0.3,2-0.8,2.4c-0.6,0.5-1.4,0.7-2.5,0.7c-1.6,0-3.1-0.3-4.7-0.8c-0.8-0.4-1.2-1-1.2-1.8c0-0.1,0-0.3,0-0.4h-7.6
			c-1.3,0-2-0.7-2-2v-4.4c0-0.6,0.1-1,0.3-1.2c-0.2,0.1-0.5,0.1-0.8,0.1c-0.7,0-1.1-0.2-1.4-0.5c-0.1-0.1-0.2-0.2-0.2-0.3v9.4
			c0,0.7-0.2,1.2-0.6,1.5c-0.3,0.3-0.8,0.4-1.5,0.4c-0.7,0-1.2-0.2-1.5-0.5c-0.3-0.3-0.5-0.8-0.5-1.4v-15c0-2,0.9-3,2.7-3h3l-1-2.6
			h-4.5c-0.6,0-1.1-0.2-1.4-0.5c-0.3-0.2-0.5-0.7-0.5-1.4c0-0.7,0.2-1.2,0.5-1.4c0.3-0.2,0.8-0.4,1.4-0.4h9.7v-0.1
			c0-0.6,0.2-1.2,0.7-1.7C227.1,15.7,227.7,15.5,228.6,15.5z M220.3,31.2c0.1-0.1,0.2-0.2,0.2-0.3c1.4-0.7,2.5-1.4,3.2-2.2
			c0.3-0.4,0.6-0.9,0.7-1.5H221c-0.5,0-0.7,0.2-0.7,0.6V31.2z M223.9,32.8c0.2,0,0.3,0,0.4,0h8.4c1.3,0,2,0.7,2,2v4.4
			c0,0.2,0,0.3,0,0.5c0.5,0.2,1.1,0.3,1.7,0.3c0.4,0,0.6-0.4,0.6-1.1v-6.5h-4.2c-2.2,0-3.3-0.7-3.3-2.1v-2.9h-1.9
			c-0.2,1-0.6,2-1.1,2.9C225.9,31.2,225,32.1,223.9,32.8z M226.2,24.2h5.5l0.9-2.6h-7.4L226.2,24.2z M230.7,38.2
			c0.2,0,0.4-0.1,0.4-0.4v-1.9c0-0.3-0.1-0.4-0.4-0.4h-4.3c-0.2,0-0.4,0.1-0.4,0.4v1.9c0,0.2,0.1,0.4,0.4,0.4H230.7z M233.4,27.2
			v1.6c0,0.4,0.3,0.6,0.8,0.6h2.8v-1.7c0-0.3-0.2-0.5-0.5-0.5H233.4z"/>
		<path class="st1" d="M257,15.3c0.6,0,1.1,0.1,1.4,0.3c0.4,0.3,0.6,0.7,0.6,1.2v2.9h2.4v-2.9c0-0.4,0.2-0.8,0.5-1.3
			c0.3-0.2,0.7-0.3,1.3-0.3c0.7,0,1.1,0.1,1.4,0.3c0.4,0.3,0.6,0.7,0.6,1.2v2.9h1.7c0.3-0.7,0.6-1.5,0.8-2.3c0.2-1,0.7-1.5,1.5-1.5
			c0.5,0,1,0.1,1.5,0.4c0.5,0.2,0.7,0.7,0.7,1.4c0,0.1,0,0.2-0.1,0.3c-0.1,0.6-0.3,1.2-0.6,1.8h2.3c0.6,0,1.1,0.1,1.3,0.4
			c0.2,0.2,0.4,0.6,0.4,1.3c0,0.5-0.1,0.9-0.3,1.2c-0.3,0.4-0.8,0.6-1.4,0.6h-5.3l-0.7,1.8h4.9c0.6,0,1,0.1,1.2,0.4
			c0.2,0.2,0.3,0.6,0.3,1.2c0,0.5-0.1,0.8-0.3,1.1c-0.3,0.3-0.7,0.5-1.3,0.5h-9.6v1.5h9.2c0.5,0,0.9,0.1,1.1,0.3
			c0.2,0.2,0.4,0.6,0.4,1.1c0,0.5-0.1,0.8-0.3,1c-0.3,0.3-0.7,0.5-1.2,0.5h-9.2v1.6h10.3c0.6,0,1,0.1,1.3,0.4
			c0.2,0.2,0.4,0.6,0.4,1.2c0,0.5-0.1,0.8-0.3,1.1c-0.3,0.3-0.7,0.5-1.3,0.5h-5c1.9,1.2,4,2.3,6.2,3.4c0.4,0.3,0.6,0.7,0.6,1.2
			c0,0.5-0.2,0.9-0.5,1.2c-0.3,0.5-0.9,0.7-1.6,0.7c-0.7,0-1.4-0.1-1.9-0.4c-0.5-0.1-0.9-0.3-1.4-0.6c-2.4-1.5-4.6-3.2-6.7-5.2v4.5
			c0,0.7-0.2,1.3-0.6,1.6c-0.3,0.3-0.9,0.5-1.6,0.5c-0.7,0-1.2-0.2-1.6-0.5c-0.4-0.3-0.6-0.8-0.6-1.6v-4.7c-0.2,0.3-0.4,0.6-0.7,0.8
			c-1.4,1.3-3.2,2.7-5.6,4.2c-0.8,0.5-1.6,0.8-2.4,1.1c-0.4,0.2-0.9,0.3-1.4,0.3c-0.6,0-1.1-0.3-1.4-1c-0.3-0.2-0.4-0.7-0.4-1.3
			c0-0.6,0.3-1,0.9-1.2c1.6-0.6,3.4-1.5,5.2-2.5c0.3-0.2,0.6-0.3,0.8-0.5h-5c-0.5,0-0.9-0.1-1.2-0.4c-0.3-0.2-0.4-0.6-0.4-1.2
			c0-0.6,0.1-1,0.4-1.2c0.2-0.2,0.7-0.4,1.2-0.4h10.2v-1.6h-9.1c-0.5,0-0.9-0.1-1.1-0.3c-0.2-0.2-0.3-0.6-0.3-1.1
			c0-0.6,0.1-1,0.3-1.1c0.3-0.2,0.6-0.3,1.1-0.3h9.1v-1.5h-9.3c-0.5,0-0.9-0.1-1.2-0.4c-0.2-0.2-0.4-0.6-0.4-1.2
			c0-0.6,0.1-1,0.4-1.2c0.2-0.2,0.6-0.4,1.2-0.4h4.6l-0.6-1.8h-5c-0.6,0-1-0.1-1.3-0.4c-0.3-0.3-0.4-0.7-0.4-1.3
			c0-0.6,0.1-1,0.4-1.3c0.3-0.2,0.7-0.4,1.3-0.4h2c-0.4-0.5-0.8-1.1-1.3-1.8c0-0.1-0.1-0.2-0.1-0.3c0-0.2,0-0.5,0.1-0.8
			c0.2-0.3,0.5-0.6,1-0.8c0.3-0.1,0.6-0.2,0.9-0.2c0.7,0,1.3,0.2,1.6,0.6c0.4,0.3,1,1,1.6,2.1c0.2,0.4,0.4,0.8,0.5,1h1.4v-2.9
			c0-0.4,0.2-0.8,0.6-1.3C255.9,15.4,256.4,15.3,257,15.3z M257.5,25h4.8l0.7-1.8h-6.1L257.5,25z"/>
		<path class="st1" d="M279.6,22h9.5v-4.3c0-0.7,0.2-1.2,0.6-1.5c0.3-0.3,0.9-0.5,1.5-0.5c0.8,0,1.3,0.2,1.7,0.5
			c0.3,0.3,0.5,0.8,0.5,1.5V22h9.9c0.8,0,1.4,0.2,1.7,0.5c0.3,0.3,0.5,0.8,0.5,1.7c0,0.7-0.1,1.2-0.4,1.5c-0.4,0.5-1,0.7-1.8,0.7
			h-9.5c0.3,1.4,0.9,2.7,1.6,4c1.6,2.8,4.7,5.9,9.3,9.5c0.6,0.4,0.9,1,0.9,1.8c0,0.7-0.2,1.2-0.7,1.6c-0.5,0.4-1.1,0.7-1.7,0.7
			c-0.6-0.1-1.1-0.2-1.4-0.3c-0.4-0.1-0.8-0.3-1.1-0.6c-2-1.4-4.9-4.5-8.5-9.5c-0.3-0.4-0.6-0.6-0.9-0.6c-0.2,0-0.4,0.2-0.5,0.5
			c-2.3,3.7-5.3,7-9,9.9c-0.4,0.4-1.1,0.6-2.1,0.6c-0.7,0-1.3-0.3-1.8-0.9c-0.3-0.5-0.5-0.8-0.5-1.2c0-0.7,0.1-1.2,0.4-1.6
			c4.3-3.2,7.3-6.1,9-8.8c1.1-1.7,1.8-3.4,2.1-5.1h-9.2c-0.8,0-1.3-0.2-1.7-0.5c-0.4-0.3-0.6-0.9-0.6-1.7c0-0.8,0.2-1.4,0.6-1.7
			C278.2,22.2,278.8,22,279.6,22z"/>
		<path class="st1" d="M314,21.9l0.1,1.1h3.1c0.4,0,0.6,0.1,0.7,0.2c0.1,0.2,0.2,0.5,0.2,0.9c0,0.3-0.1,0.6-0.2,0.8
			c-0.2,0.2-0.4,0.3-0.8,0.3h-2.9l0.1,1.2h4.6c-0.1-0.1-0.3-0.2-0.4-0.4c-0.1-0.2-0.2-0.5-0.2-0.8c0-0.3,0.2-0.6,0.5-0.9
			c0.7-0.2,1.5-0.5,2.3-0.9c-0.6-0.4-1.2-0.7-1.8-1.1c-0.1,0-0.2-0.1-0.3-0.2c-0.1-0.2-0.2-0.4-0.2-0.6c0-0.2,0-0.5,0.1-0.6
			c-0.1-0.1-0.3-0.2-0.3-0.4c-0.1-0.2-0.2-0.4-0.2-0.7c0-0.3,0.2-0.5,0.5-0.7c0.6-0.2,1.3-0.4,1.9-0.8c-0.5-0.3-0.9-0.6-1.4-0.8
			c-0.1,0-0.2-0.1-0.3-0.2c-0.1-0.2-0.2-0.4-0.2-0.6c0-0.4,0.1-0.8,0.3-1c0.2-0.2,0.6-0.4,1-0.4c0.3,0,0.6,0.1,0.8,0.2
			c0.8,0.4,1.6,0.8,2.4,1.3c0.6-0.4,1.1-0.9,1.5-1.3c0.2-0.2,0.4-0.2,0.7-0.2c0.3,0,0.6,0.1,0.9,0.3c0.2,0.2,0.4,0.5,0.4,0.9
			c0,0.3-0.1,0.7-0.3,1c-0.3,0.3-0.6,0.6-1,0.8c0.5,0.3,1,0.7,1.4,1c0.2,0.3,0.4,0.6,0.4,1c0,0.3-0.1,0.6-0.2,0.8
			c0.1,0.2,0.1,0.4,0.1,0.5c0,0.3-0.1,0.7-0.4,1c-0.3,0.3-0.6,0.6-1,0.9c0.5,0.4,1,0.7,1.4,1.1c0.3,0.3,0.4,0.6,0.4,1
			c0,0.3-0.1,0.6-0.3,0.8l0,0h3.7c0.1-0.4,0.1-0.8,0.2-1.2h-2.3c-0.3,0-0.6-0.1-0.8-0.3c-0.1-0.2-0.2-0.4-0.2-0.8
			c0-0.4,0.1-0.7,0.3-0.9c0.2-0.1,0.4-0.2,0.7-0.2h2.6c0-0.4,0.1-0.8,0.1-1.1H329c-0.3,0-0.6-0.1-0.8-0.3c-0.1-0.2-0.2-0.4-0.2-0.9
			c0-0.4,0.1-0.7,0.3-0.9c0.2-0.1,0.4-0.2,0.7-0.2h2.9c0.1-0.6,0.1-0.9,0.1-1c0-0.2-0.1-0.3-0.4-0.3h-2.9c-0.4,0-0.7-0.1-1-0.4
			c-0.2-0.2-0.2-0.5-0.2-1.1c0-0.4,0.1-0.8,0.3-1c0.2-0.2,0.5-0.3,0.9-0.3h3.1c1.4,0,2.3,0.2,2.8,0.5c0.6,0.3,0.9,1,0.9,1.9
			c0,0.4-0.3,3.2-0.9,8.4c1.5,0.2,2.3,0.9,2.3,2.3V31c0,0.7-0.2,1.2-0.6,1.4c-0.3,0.3-0.9,0.5-1.5,0.5c-0.8,0-1.4-0.2-1.7-0.5
			c-0.2-0.2-0.4-0.6-0.4-1.1v-1.7c0-0.2-0.2-0.4-0.6-0.4h-18.4c-0.3,0-0.5,0.1-0.5,0.4v1.7c0,0.6-0.2,1-0.5,1.2
			c-0.3,0.2-0.9,0.4-1.6,0.4c-0.7,0-1.3-0.2-1.6-0.5c-0.4-0.3-0.6-0.8-0.6-1.5v-2.2c0-1.3,0.7-2,2-2.2l-0.5-8.2
			c0-0.9,0.5-1.6,1.4-1.9c1.1-0.4,2-0.7,2.8-0.9c0.3-0.1,0.6-0.1,0.8-0.1c0.4,0,0.9,0.2,1.3,0.6c0.4,0.4,0.6,0.7,0.6,1
			c0,0.6-0.2,0.9-0.6,1c-0.4,0.2-1.1,0.5-2.1,0.7c-0.6,0.2-0.9,0.5-0.9,0.9v0.1h3.2c0.4,0,0.6,0.1,0.8,0.2c0.1,0.2,0.2,0.4,0.2,0.9
			c0,0.4-0.1,0.7-0.2,0.8c-0.2,0.2-0.4,0.3-0.8,0.3H314z M315.6,30.4h13.8c1.6,0.1,2.5,0.8,2.6,2.1c0,0.6-0.2,1.1-0.6,1.7
			c-0.3,0.5-0.6,0.9-1.1,1.3h4.9c0.6,0,1.1,0.1,1.4,0.4c0.3,0.2,0.4,0.6,0.4,1.3c0,0.5-0.1,0.9-0.3,1.1c-0.3,0.4-0.8,0.6-1.4,0.6
			h-8.9c0.1,0.6,0.2,1.2,0.2,1.7c0,1.2-0.4,2.1-1.1,2.8c-0.7,0.6-1.5,1-2.5,1c-2.3,0-3.9-0.2-4.9-0.6c-0.9-0.2-1.4-0.8-1.4-1.7
			c0-0.5,0.2-0.9,0.4-1.2c0.2-0.3,0.6-0.4,1.2-0.5c0.2,0,0.7,0.1,1.5,0.3c0.8,0.2,1.4,0.3,1.9,0.3c0.4,0,0.6-0.3,0.6-0.8
			c0-0.3-0.1-0.7-0.3-1.2h-11.2c-0.6,0-1-0.1-1.3-0.4c-0.3-0.3-0.4-0.7-0.4-1.3c0-0.6,0.1-1,0.4-1.3c0.3-0.2,0.7-0.4,1.3-0.4h10.3
			c0.1-0.4,0.3-0.7,0.6-0.9c0.4-0.2,0.9-0.4,1.5-0.4c0.9,0,1.5,0.3,1.7,0.8c0.1,0.2,0.1,0.3,0.2,0.4c1.4-0.6,2.1-1.2,2.1-1.7
			c0-0.2-0.1-0.2-0.4-0.2h-11.3c-0.9-0.1-1.4-0.6-1.5-1.6C314.2,31,314.7,30.5,315.6,30.4z M320.2,26.5h5.2l0,0
			c-0.7-0.5-1.3-0.9-1.9-1.4C322.3,25.7,321.3,26.1,320.2,26.5z M321.1,20.8c0.9,0.5,1.8,0.9,2.6,1.4c0.5-0.3,0.9-0.6,1.3-1
			c-0.7-0.4-1.3-0.9-1.9-1.3C322.4,20.2,321.8,20.5,321.1,20.8z"/>
		<path class="st1" d="M344.4,16.2h19.9c2.4,0,3.5,1.2,3.5,3.5V40c0,2.4-1.2,3.5-3.5,3.5h-19.9c-2.4,0-3.5-1.2-3.5-3.5V19.7
			C340.8,17.4,342,16.2,344.4,16.2z M363.2,40.2c0.5,0,0.7-0.3,0.7-0.8V20.2c0-0.5-0.2-0.8-0.7-0.8h-17.7c-0.5,0-0.7,0.3-0.7,0.8
			v19.2c0,0.5,0.2,0.8,0.7,0.8H363.2z M352.6,24.9h-3.5c-1,0-1.4-0.5-1.4-1.5v-1.7c0-1,0.5-1.5,1.4-1.5h10.4c1,0,1.5,0.5,1.5,1.5
			v1.7c0,1-0.5,1.5-1.5,1.5h-3.4v0.9h5.9c0.3,0,0.5,0.1,0.7,0.2c0.2,0.1,0.3,0.4,0.3,0.9c0,0.3-0.1,0.6-0.2,0.7
			c-0.2,0.2-0.5,0.4-0.8,0.4h-15.1c-0.3,0-0.5-0.1-0.7-0.3c-0.2-0.2-0.3-0.4-0.3-0.8c0-0.5,0.1-0.8,0.3-0.9c0.1-0.1,0.3-0.2,0.7-0.2
			h5.7V24.9z M348.8,28.8h11.2c1.5,0,2.2,0.7,2.2,2.2v5.9c0,1.5-0.7,2.2-2.2,2.2h-11.2c-1.5,0-2.2-0.7-2.2-2.2V31
			C346.6,29.5,347.3,28.8,348.8,28.8z M358.4,36.9c0.4,0,0.6-0.2,0.6-0.6v-4.7c0-0.4-0.2-0.6-0.6-0.6h-8c-0.4,0-0.6,0.2-0.6,0.6v4.7
			c0,0.4,0.2,0.6,0.6,0.6H358.4z M352.2,31.7h4.5c1,0,1.5,0.5,1.5,1.5v1.5c0,1-0.5,1.5-1.5,1.5h-4.5c-1,0-1.5-0.5-1.5-1.5v-1.5
			C350.7,32.2,351.2,31.7,352.2,31.7z M357.2,23.1c0.3,0,0.4-0.1,0.4-0.4v-0.3c0-0.2-0.1-0.4-0.4-0.4h-5.7c-0.2,0-0.4,0.1-0.4,0.4
			v0.3c0,0.2,0.1,0.4,0.4,0.4H357.2z M355.3,34.6c0.2,0,0.3-0.1,0.3-0.4v-0.5c0-0.2-0.1-0.4-0.3-0.4h-1.7c-0.2,0-0.4,0.1-0.4,0.4
			v0.5c0,0.3,0.1,0.4,0.4,0.4H355.3z"/>
		<path class="st1" d="M374.3,16.7h9c0.1-0.5,0.2-0.8,0.5-1c0.3-0.3,0.9-0.5,1.7-0.5c0.8,0,1.4,0.2,1.7,0.5c0.2,0.2,0.4,0.6,0.5,1
			h7.7c1.6,0,2.3,0.6,2.3,1.9v1.6h1.4c0.4,0,0.8,0.1,1,0.3c0.2,0.1,0.2,0.5,0.2,1c0,0.3-0.1,0.6-0.2,0.8c-0.2,0.3-0.5,0.4-1,0.4
			h-1.4v1.6c0,1.3-0.8,1.9-2.3,1.9h-7.6v1.1h9.9c0.4,0,0.7,0.1,1,0.2c0.2,0.1,0.3,0.4,0.3,0.9c0,0.3-0.1,0.6-0.2,0.8
			c-0.2,0.3-0.5,0.4-1,0.4h-9.9v1h11.1c0.5,0,0.8,0.1,1,0.3c0.2,0.1,0.3,0.5,0.3,1c0,0.4-0.1,0.7-0.2,0.9c-0.3,0.3-0.6,0.5-1.1,0.5
			h-25.9c-0.4,0-0.8-0.1-1-0.3c-0.2-0.2-0.3-0.5-0.3-1s0.1-0.8,0.3-1c0.2-0.2,0.6-0.2,1-0.2h10.4v-1h-9.5c-0.4,0-0.7-0.1-1-0.3
			c-0.2-0.2-0.3-0.5-0.3-0.9c0-0.4,0.1-0.7,0.3-0.9c0.2-0.2,0.5-0.2,1-0.2h9.5v-1.1h-9c-0.7,0-1.1-0.4-1.1-1.2
			c0-0.7,0.4-1.1,1.1-1.1h9v-1.2h-10.4c-0.4,0-0.7-0.1-0.9-0.3c-0.2-0.2-0.3-0.5-0.3-0.9c0-0.5,0.1-0.8,0.3-1
			c0.2-0.2,0.5-0.2,0.9-0.2h10.4V19h-9c-0.7-0.1-1.1-0.5-1.1-1.2C373.2,17.1,373.6,16.7,374.3,16.7z M375.7,34.1h20.4
			c1.6,0,2.5,0.8,2.5,2.5v4.6c0,1.6-0.8,2.4-2.5,2.4h-20.4c-1.6,0-2.5-0.8-2.5-2.4v-4.6C373.2,34.9,374,34.1,375.7,34.1z
			 M377.7,37.7h16.4V37c0-0.3-0.1-0.4-0.4-0.4H378c-0.2,0-0.3,0.1-0.3,0.4V37.7z M393.7,41c0.2,0,0.4-0.1,0.4-0.4v-0.7h-16.4v0.7
			c0,0.3,0.1,0.4,0.3,0.4H393.7z M387.7,19v1.2h5.6v-0.8c0-0.3-0.2-0.5-0.6-0.5H387.7z M387.7,22.7v1.2h5.2c0.3,0,0.4-0.1,0.4-0.4
			v-0.8H387.7z"/>
		<path class="st1" d="M423.7,15.5c0.8,0,1.3,0.2,1.6,0.5c0.5,0.4,0.7,0.9,0.7,1.5v0.7h2.3c1.8,0,2.7,0.9,2.7,2.7v1.9
			c0,0.6-0.2,1-0.6,1.3c-0.3,0.3-0.7,0.5-1.3,0.5c0.2,0.2,0.2,0.6,0.2,1v4.9c0,1.5-0.5,2.2-1.6,2.2h-6.4v1.9h7.2
			c1.2,0,1.8,0.5,1.8,1.5v5.4c0,1.5-0.6,2.2-1.8,2.2h-8.8c-1.4,0-2.1-0.8-2.1-2.5V25.9c0-0.6,0.1-1,0.3-1.3c-0.6,0-1.1-0.2-1.3-0.4
			c-0.3-0.3-0.5-0.7-0.5-1.1c0,0-0.1,0.1-0.1,0.1c-0.3,0.3-0.7,0.5-1.3,0.5c-0.6,0-1.1-0.2-1.4-0.5c0,0.3-0.1,0.5-0.2,0.6
			c-0.2,0.3-0.6,0.5-1.1,0.5h-5c-0.4,0-0.7-0.1-1-0.4c-0.1-0.1-0.2-0.2-0.2-0.3c-0.4,0.3-0.7,0.4-1,0.4c-0.8,0-1.4-0.2-1.8-0.7
			c-0.4-0.4-0.6-0.9-0.6-1.4c0-0.4,0.3-0.8,0.7-1.1c1.4-1.4,2.8-2.8,4.3-4.2c0.8-0.7,1.5-1.1,2.3-1.1c0.7,0,1.5,0.3,2.4,1
			c1.2,0.8,2.2,1.7,3,2.7c0.4,0.5,0.7,0.9,0.9,1.3c0.1-1.6,0.9-2.4,2.5-2.4h2.6v-0.7c0-0.6,0.2-1.1,0.7-1.6
			C422.3,15.7,422.9,15.5,423.7,15.5z M406.7,25.6h6.6c1.5,0,2.2,0.6,2.2,1.9v6.9c0,1.1-0.6,1.7-1.7,1.9c0.5,0.6,1,1.4,1.6,2.5
			c0.8,1.5,1.2,2.5,1.2,3c0,0.4-0.1,0.7-0.2,0.9c-0.4,0.5-1,0.7-1.6,0.7c-0.5,0-0.9-0.2-1.1-0.6c-0.2-0.5-0.5-1-0.7-1.4
			c-2.4,1-5.2,1.6-8.4,1.8c-0.7,0-1.1-0.1-1.4-0.4c-0.3-0.3-0.5-0.8-0.5-1.5c0-0.6,0.2-1,0.4-1.3c0.2-0.3,0.6-0.4,1-0.5V27.6
			C404.1,26.3,405,25.6,406.7,25.6z M408,29.8h3.8v-1c0-0.2-0.2-0.3-0.6-0.3h-2.7c-0.3,0-0.5,0.1-0.5,0.3V29.8z M408,33.6h3.2
			c0.4,0,0.6-0.2,0.6-0.5V32H408V33.6z M411.5,38.6c-0.2-0.3-0.4-0.6-0.5-0.9c-0.2-0.2-0.2-0.5-0.2-0.7c0-0.3,0.1-0.5,0.2-0.6H408
			v2.8C409.2,39.1,410.3,38.9,411.5,38.6z M408.1,21.5h3.7c-0.3-0.4-0.6-0.8-0.9-1.2c-0.3-0.4-0.6-0.7-1-0.7c-0.3,0-0.5,0.2-0.7,0.6
			C408.8,20.6,408.4,21.1,408.1,21.5z M419.9,23.9h7.6c-0.1-0.2-0.2-0.5-0.2-0.8v-1.2c0-0.2-0.2-0.4-0.6-0.4h-6.1
			c-0.3,0-0.5,0.1-0.5,0.4v1.4C420,23.5,419.9,23.7,419.9,23.9z M425.8,27.2H422c-0.3,0-0.5,0.2-0.5,0.5v1.6h4.3V27.2z M426.7,40.2
			v-2.5h-5.3v2.1c0,0.2,0.2,0.4,0.5,0.4H426.7z"/>
	</g>
</g>
</svg>
