<?xml version="1.0" encoding="utf-8"?>
<!-- Generator: $$$/GeneralStr/196=Adobe Illustrator 27.6.0, SVG Export Plug-In . SVG Version: 6.00 Build 0)  -->
<svg version="1.1" id="圖層_1" xmlns="http://www.w3.org/2000/svg" xmlns:xlink="http://www.w3.org/1999/xlink" x="0px" y="0px"
	 viewBox="0 0 105 106.2" style="enable-background:new 0 0 105 106.2;" xml:space="preserve">
<style type="text/css">
	.st0{fill-rule:evenodd;clip-rule:evenodd;fill:#F7D8A8;}
</style>
<path id="形狀_3" class="st0" d="M13.1,18L2.7,36.2C4.9,29.5,8.5,23.3,13.1,18z M21.6,10.2L0.3,47.5c0.1-1.3,0.3-2.7,0.6-4
	l17.6-30.8C19.5,11.8,20.5,11,21.6,10.2L21.6,10.2z M27.9,6.2L0,55c0-0.6,0-1.2,0-1.9c0-0.4,0-0.7,0-1.1L25.4,7.6
	C26.2,7.1,27,6.6,27.9,6.2L27.9,6.2z M33.4,3.6L0.6,61.1c-0.1-0.8-0.2-1.6-0.3-2.5l30.8-54C31.8,4.2,32.6,3.9,33.4,3.6L33.4,3.6z
	 M38.3,1.9L1.6,66.3c-0.2-0.7-0.3-1.4-0.5-2.2L36.3,2.6C37,2.3,37.6,2.1,38.3,1.9L38.3,1.9z M43,0.9l-40,70
	c-0.2-0.6-0.4-1.3-0.6-1.9L41,1.3C41.7,1.1,42.3,1,43,0.9L43,0.9z M47.4,0.2L4.7,75c-0.3-0.6-0.5-1.1-0.7-1.7L45.5,0.5
	C46.1,0.4,46.7,0.3,47.4,0.2L47.4,0.2z M51.5,0l-45,78.8c-0.3-0.5-0.6-1-0.8-1.6l44-77.2C50.3,0,50.9,0,51.5,0L51.5,0z M55.5,0.1
	L8.6,82.2c-0.3-0.5-0.6-0.9-0.9-1.4L53.8,0C54.4,0,54.9,0,55.5,0.1L55.5,0.1z M59.3,0.4l-48.5,85c-0.3-0.4-0.7-0.9-1-1.3L57.7,0.2
	C58.2,0.3,58.8,0.4,59.3,0.4L59.3,0.4z M63,1L13.2,88.3c-0.4-0.4-0.7-0.8-1-1.2L61.4,0.8C61.9,0.8,62.5,0.9,63,1L63,1z M66.5,1.9
	L15.7,90.9c-0.4-0.4-0.7-0.7-1.1-1.1L65,1.5C65.5,1.6,66,1.8,66.5,1.9L66.5,1.9z M69.9,3L18.3,93.4c-0.4-0.3-0.8-0.7-1.1-1L68.5,2.5
	C68.9,2.7,69.4,2.8,69.9,3L69.9,3z M73.2,4.3L21.1,95.6c-0.4-0.3-0.8-0.6-1.2-0.9l51.9-91C72.3,3.9,72.7,4.1,73.2,4.3L73.2,4.3z
	 M76.3,5.8L23.9,97.6c-0.4-0.3-0.8-0.6-1.2-0.8L75,5.1C75.5,5.3,75.9,5.5,76.3,5.8L76.3,5.8z M79.4,7.5l-52.5,92
	c-0.4-0.2-0.9-0.5-1.3-0.8l52.5-92C78.5,7,79,7.2,79.4,7.5L79.4,7.5z M82.3,9.4L30,101.1c-0.5-0.2-0.9-0.4-1.3-0.7L81.1,8.5
	C81.5,8.8,81.9,9.1,82.3,9.4L82.3,9.4z M85.1,11.5l-51.9,91c-0.5-0.2-0.9-0.4-1.4-0.6l52.1-91.3C84.3,10.9,84.7,11.2,85.1,11.5
	L85.1,11.5z M87.8,13.8l-51.3,89.9c-0.5-0.2-1-0.3-1.4-0.5l51.6-90.4C87.1,13.1,87.5,13.5,87.8,13.8L87.8,13.8z M90.4,16.3L40,104.7
	c-0.5-0.1-1-0.3-1.5-0.4l50.8-89.1C89.7,15.6,90,16,90.4,16.3L90.4,16.3z M92.8,19.1l-49.3,86.3c-0.5-0.1-1-0.2-1.5-0.3l49.8-87.2
	C92.2,18.3,92.5,18.7,92.8,19.1L92.8,19.1z M95.1,22.1l-47.8,83.8c-0.5-0.1-1.1-0.1-1.6-0.2l48.5-85C94.5,21.2,94.8,21.7,95.1,22.1
	L95.1,22.1z M97.3,25.4l-46.1,80.8c-0.6,0-1.1,0-1.7-0.1L96.4,24C96.7,24.4,97,24.9,97.3,25.4L97.3,25.4z M99.3,29l-44,77.2
	c-0.6,0-1.2,0.1-1.7,0.1l45-78.8C98.7,27.9,99,28.4,99.3,29L99.3,29z M101.1,32.9l-41.6,72.8c-0.6,0.1-1.2,0.2-1.8,0.2l42.7-74.8
	C100.6,31.7,100.8,32.3,101.1,32.9L101.1,32.9z M102.6,37.2L64,104.9c-0.6,0.2-1.3,0.3-1.9,0.4l40-70
	C102.2,35.9,102.4,36.6,102.6,37.2L102.6,37.2z M103.9,42.1l-35.1,61.6c-0.7,0.2-1.4,0.4-2.1,0.6l36.7-64.3
	C103.5,40.6,103.7,41.3,103.9,42.1L103.9,42.1z M104.7,47.6l-30.8,54c-0.7,0.3-1.5,0.7-2.3,1l32.8-57.4
	C104.5,45.9,104.6,46.8,104.7,47.6L104.7,47.6z M105,53.1c0,0.4,0,0.7,0,1.1L79.7,98.6c-0.8,0.5-1.7,1-2.5,1.5L105,51.2
	C105,51.8,105,52.5,105,53.1L105,53.1z M104.7,58.7c-0.1,1.3-0.3,2.7-0.6,4L86.5,93.5c-1,0.9-2.1,1.7-3.1,2.5L104.7,58.7z M102.3,70
	c-2.2,6.7-5.8,12.9-10.4,18.2L102.3,70z"/>
</svg>
